<?xml version="1.0" encoding="utf-8"?>
<!-- Generator: Adobe Illustrator 28.2.0, SVG Export Plug-In . SVG Version: 6.00 Build 0)  -->
<svg version="1.1" id="Capa_1" xmlns="http://www.w3.org/2000/svg" xmlns:xlink="http://www.w3.org/1999/xlink" x="0px" y="0px"
	 viewBox="0 0 150 150" style="enable-background:new 0 0 150 150;" xml:space="preserve">
<style type="text/css">
	.st0{fill:#2B2B2B;stroke:#000000;stroke-miterlimit:10;}
	.st1{fill:#2B2B2B;stroke:#000000;stroke-width:0.25;stroke-miterlimit:10;}
</style>
<path d="M255.9,1562.9c-0.8-1.3-1.3-1.9-1.7-2.6c-7.6-14.3-19.6-22.4-35.3-25c-27.4-4.5-52.2-15.4-75.3-30.6
	c-28.7-18.8-52.2-43.3-75.5-68.1c-8.5-9.1-17-18.3-26-27.4c8.9,4.2,17.9,8.2,26.7,12.5c17.1,8.5,33.3,18.1,47.9,30.6
	c27.3,23.4,58.3,38.8,94.2,44c18.8,2.7,34.5,11.3,47.7,25.2c4.5,4.8,5.5,8.9,2,14.8c-8.6-9.7-18.9-17-30.6-22.5
	c-15.7-7.4-32.3-12.6-48.9-17.5c-29.4-8.6-55-23.4-76.9-44.7c-1.2-1.2-2.6-3.4-4.5-1.5c-2.3,2.3,0.4,3.6,1.7,4.8
	c8.6,8.4,18,15.8,28,22.6c17.1,11.7,36,19.1,55.8,24.9c17.6,5.1,35.1,10.6,51.1,19.8c7.6,4.3,14.2,9.8,20.1,16.2
	c2.7,3,3.5,5.8,1.7,9.4c-0.8,0.5-1.2-0.1-1.7-0.5c-17.7-17.4-39.5-26.8-63.2-32.4c-22.2-5.2-42.7-13.9-60.1-29
	c-1.2-1-2.4-2.3-3.8-0.8c-1.7,1.7-0.2,3,1,4.1c10.1,9.1,21.6,16,34.1,21.3c12.7,5.3,26.1,7.9,39.2,11.8c18.3,5.4,34.8,14,48.9,27.1
	C256.6,1553.2,258,1556.9,255.9,1562.9z"/>
<path d="M-474.7,1632.3c3.4,0.8,4.5,2.5,4.5,5.4c0.1,12.3,0.4,24.6-0.5,37c-0.1,1.6-1.3,4,1.9,4.1c2.9,0.1,2.5-2.3,2.6-3.9
	c0.2-10,0.4-20,0.6-30c0-1.6-0.5-3.2,0.7-5.5c4.6,5.9,7.9,11.8,7.7,19.1c-0.1,5.7-1.1,11.3-2.3,16.8c-0.3,1.4-1.5,3,0.9,3.6
	c2.1,0.5,3.1-0.7,3.5-2.6c0.4-2.1,0.9-4.2,1.2-6.4c3.8-26.8-0.1-52-14.4-75.4c-9-14.8-17.2-30.1-25.5-45.2c-3.9-7.2-7-14.7-8.6-22.8
	c-0.5-2.7-0.9-5.5-0.4-8.8c11.7,5.8,20.4,14.3,27.7,24.3c8.6,11.7,13.4,25.2,18.1,38.7c6.4,18,13.7,35.8,16,55
	c1.7,13.7,0.1,26.9-5.5,39.6c-1.5,3.3-1.8,4.7,2.7,5.4c12.7,2,25,5.8,36.6,11.2c1.5,0.7,4.4,1,3.4,3.4s-3.2,0.5-4.7-0.2
	c-17.7-7.9-36.1-12.7-55.6-12.8c-18.1-0.1-35.4,3.7-51.3,12.7c-1.3,0.8-3.1,2.5-4.2,0.2c-0.9-1.7,1.2-2.4,2.4-3.2
	c4.4-2.7,9.1-5,14-6.5c3.8-1.1,4.4-2.7,3.2-6.4c-5.5-16.3-8.4-33.2-8.9-50.5c-0.1-1.9-2.2-5.9,2.1-5.7c3.4,0.1,7.9-1.2,9,5
	c3,16.4,8.3,32.2,15,47.5c0.8,1.8,1,4.6,4.1,4c3.2-0.6,2.2-3.3,2.4-5.3C-475,1660.5-474.7,1646.6-474.7,1632.3z"/>
<path d="M-542,918c-3.8-3.8-8.6-5.7-13.8-6.4c-2.3-0.3-3-1.5-3.2-3.6c-1.2-10.8,2.5-19.4,11.5-25.4c11.8-7.9,25.1-11.2,39.2-11
	c3.1,0,6.3,0.3,9.9,0.5c-3.1,6.7-6.1,13.1-7.3,20.2c-1.8,10.2-0.8,19.8,6.1,28.3c4.3,5.3,3.1,20.3-1.6,25.1c-3,3-11.6,3.7-16.5,0.3
	c-5.4-3.7-10.7-3.4-16-0.8c-3.1,1.5-4.4,0.4-5.7-2.3c-2.5-4.9-2.1-10-0.9-15.1c1.7-7.1,5.3-13.2,9.3-19.2c0.9-1.4,2.4-2.9,0.5-4.3
	c-1.9-1.4-3,0.4-3.9,1.8C-536.9,909.8-539.3,913.7-542,918z"/>
<path d="M865.7,1405.3c0,19.2-15.6,34.8-35,34.7c-19,0-34.7-15.7-34.6-34.6c0-19.4,15.6-35.1,34.7-35.1
	C850.2,1370.5,865.7,1386,865.7,1405.3z M809,1399.3c-0.2-2.4-1.4-3.9-3.7-4.1c-2.6-0.2-4.1,1.4-4.3,3.9c-0.1,2.3,1.4,3.8,3.6,4
	C807.2,1403.3,808.5,1401.7,809,1399.3z M830.1,1390.3c-2.4,0.3-4.1,1.5-4.2,4c0,2.5,1.5,3.9,4,4c2.3,0,3.7-1.4,3.9-3.6
	C834,1392.2,832.5,1390.8,830.1,1390.3z M861.2,1399.9c-0.3-2.6-1.8-4-4.4-3.8c-2.3,0.2-3.6,1.8-3.5,4.1c0.2,2.5,1.7,4.1,4.3,3.8
	C859.9,1403.7,861.2,1402.3,861.2,1399.9z M831.8,1413.4c-2.4,0.3-4.1,1.5-4,4.1c0.1,2.3,1.5,3.7,3.8,3.8c2.3,0.1,3.9-1.3,4-3.6
	C835.9,1415.2,834.4,1413.8,831.8,1413.4z M827.9,1434.1c-0.4-2.5-1.6-4.1-4.2-4c-2.3,0.1-3.8,1.6-3.7,3.9c0,2.5,1.6,4.1,4.1,4
	C826.3,1437.8,827.6,1436.4,827.9,1434.1z M846.4,1401.5c-0.3-1.8-1.3-3.5-3.7-3.6c-2.6-0.1-4.1,1.4-4.1,4s1.6,4.1,4.2,4
	C845,1405.8,846.2,1404.2,846.4,1401.5z M852.3,1387.7c-0.2-2.3-1.5-3.8-3.8-3.9c-2.5-0.1-4.2,1.5-4.2,4s1.7,4,4.3,3.9
	C850.8,1391.5,852,1390,852.3,1387.7z M820.2,1385c-0.3-2.2-1.5-3.8-4.1-3.8c-2.4,0-3.7,1.7-3.8,3.8c-0.1,2.2,1.2,3.9,3.5,4.1
	C818.3,1389.3,819.8,1387.8,820.2,1385z M839.5,1377.2c-0.4-2.3-1.6-4.1-4.2-4c-2.2,0.1-3.7,1.6-3.7,3.9c0,2.5,1.4,4.1,4.1,4
	C838,1381.1,839.2,1379.5,839.5,1377.2z M846.3,1425.1c-0.3-2.5-1.7-4-4.2-3.8c-2.3,0.2-3.6,1.6-3.5,4c0.1,2.3,1.3,3.9,3.7,3.9
	C844.8,1429.2,846.2,1427.9,846.3,1425.1z M808.5,1425.9c2.5-0.4,4.1-1.8,3.9-4.4c-0.2-2.3-1.7-3.7-4-3.6c-2.3,0-3.8,1.4-3.8,3.7
	C804.5,1424.2,806.1,1425.5,808.5,1425.9z M817.8,1412.5c2.5-0.2,3.9-1.7,3.8-3.9c0-2.5-1.6-4-4.2-3.9c-2.3,0.1-3.7,1.5-3.7,3.9
	C813.7,1411.2,815.4,1412.4,817.8,1412.5z M854.9,1413.8c-2.5,0.2-4.1,1.5-4,4.1c0.1,2.3,1.5,3.6,3.9,3.7c2.3,0,3.9-1.3,4-3.5
	C858.9,1415.5,857.5,1414.1,854.9,1413.8z"/>
<path d="M-492.7,926.8c2.8,1.4,5,2.6,7.3,3.6c2.8,1.4,5.5,2.1,8.1-0.8c1.4-1.5,3.6-1.6,5.6-1.8c4.5-0.5,8.4-2,11-5.9
	c1.4-2.1,3.4-1.7,5.4-1.2c4.6,1.1,7.7-0.6,9.7-4.8c2.1-4.2,3.6-8.6,3.7-13.3c0.1-3.2,0.9-3.9,3.7-2c9.2,6.4,15.2,14.7,16.2,26.2
	c0.4,4.6,0.9,9.3,1.9,13.8c1.5,7.4-6.4,18.1-13.9,18.4c-2.5,0.1-5,0.1-7.5,0.2c-2.9,0.2-5.4,1.4-7.4,3.6c-7.6,8.4-19.5,10-30.4,4.4
	c-11.7-6-16.8-15.8-14.3-27.3C-492.8,935.8-492.2,931.8-492.7,926.8z"/>
<path d="M-544.1,924.4c-1,3.6-1.6,7-1.5,10.5c0.1,3.4,0.7,6.6,2.2,9.7c3.1,6.1,5.2,7,11.4,4.4c4.3-1.8,8.2-2.3,12.2,0.7
	c1.3,1,3.1,1.3,4.6,1.8c5,1.5,6.7,5.7,3.5,9.9c-5,6.6-12.3,10.7-18.9,15.4c-1.6,1.2-2.5,0.1-3.5-1.4c-3.5-4.8-6.7-5.8-12-3.1
	c-4.6,2.4-7.9,2.5-10.5-2.8c-1.8-3.6-5.6-4.7-9.4-4.5c-4.1,0.3-8.2,1-12.4,1.7c-6.3,0.9-12.3,0.7-17.6-3.5c-1.7-1.4-2.8-2.6-0.9-4.9
	c5-6.4,6.6-13.8,5.5-21.7c-0.4-3.3,0.8-4.3,3.7-5c7.4-1.9,14.8-4.2,21.1-8.8c1.5-1.1,2.9-2.3,4.1-3.6c1.7-1.9,2.7-4.5,6.3-3.4
	c4.3,1.3,8.9,1.9,11.4,6.3C-544.3,922.9-544.3,923.8-544.1,924.4z"/>
<path d="M-470.7,860.2c2-2.4,3.8-2.7,6.2-2.3c10.7,1.6,20.4,0.3,30.8-4.6c15.5-7.4,32.1-8.1,47.7,1.9c1.9,1.3,4,2.6,6.1,3.3
	c4.7,1.4,5.3,4.2,3.3,8.2c-0.6,1.2-1,2.5-1.2,3.8c-1.1,7-4.4,11.7-11.8,13.6c-4.7,1.2-8.2,4.9-12,7.9c-7.5,6-10.1,6.1-18.2,1.2
	c-1.5-0.9-3.4-2.2-5-2c-10.2,0.9-16.5-5.7-22.5-12C-454.3,872.1-461.3,865.1-470.7,860.2z"/>
<path d="M-502,899c0.3-8.5,3.7-17.3,8.3-25.7c0.5-1,1.1-2.2,2.4-2.4c5.8-1.2,11.1-3.4,15.9-6.9c1.2-0.9,2.2-0.2,3.2,0.3
	c7.9,4.4,15.2,9.5,20.4,17.1c6.6,9.7,7.5,20,3.2,30.8c-1.3,3.2-3,4.9-6.8,3.9c-3.7-1-6.9,0.1-9.1,3.5c-1.3,2.1-3.4,3.1-5.8,3.4
	c-2,0.3-4.3,0.2-5.8,1.2c-7.2,4.9-12.2,0.1-17.1-3.8C-499.6,915.4-502.1,908.3-502,899z"/>
<path d="M-353.7,1490.2c0.2,18.3-4.4,31.8-14.6,43.3c-2.3,2.5-3.5,2.4-5.8,0.1c-15.8-15.6-20.5-34.5-16.6-55.8
	c2.1-11.5,6.5-22.3,12.5-32.4c2.8-4.7,7.6-4.7,10.3,0.1C-359.6,1460.3-354.2,1476.1-353.7,1490.2z"/>
<path d="M-512.8,1416.2c0,23.5-7.3,39.1-22.3,51.3c-3.4,2.8-4.9,2.1-7.1-1.3c-11.2-16.8-12.1-34.9-6.4-53.6
	c3.6-11.9,9.3-22.8,16.7-32.8c3.3-4.4,8.1-4,10.3,1C-516.1,1393.4-512.9,1406.6-512.8,1416.2z"/>
<path d="M966.1,1515.3c16-0.1,29.1,12.7,29.3,28.7c0.2,16.4-12.8,29.6-29.3,29.6c-15.9,0-28.9-12.9-29-28.9
	C936.9,1528.5,949.9,1515.4,966.1,1515.3z M944.4,1539.3c2.5-0.3,4-1.7,4-4.2c-0.1-2.2-1.5-3.7-3.7-3.8c-2.5-0.1-4.1,1.5-4.1,3.9
	C940.5,1537.7,942,1539.1,944.4,1539.3z M961.1,1543.5c-0.2-2.3-1.4-3.8-3.7-3.9c-2.6-0.2-4.1,1.4-4.2,3.9c-0.1,2.3,1.4,3.8,3.6,3.9
	C959.4,1547.5,960.8,1546.1,961.1,1543.5z M959.2,1523.7c-0.1-2.3-1.1-4-3.5-4.1c-2.5-0.1-4.3,1.1-4.4,3.7c-0.1,2.5,1.4,4,4,4.1
	C957.7,1527.4,958.9,1525.9,959.2,1523.7z M971.3,1543.1c2.4-0.3,3.9-1.5,3.9-4.1c0-2.3-1.3-3.7-3.6-3.9c-2.6-0.2-4.1,1.3-4.3,3.7
	C967.2,1541.3,968.8,1542.7,971.3,1543.1z M949.6,1554.3c-0.4-2.3-1.8-3.8-4-3.8c-2.5,0-4.1,1.6-3.9,4.2c0.1,2.3,1.6,3.7,3.9,3.7
	C948.1,1558.4,949.3,1556.6,949.6,1554.3z M988.3,1549.5c-2.5,0.1-4.2,1.5-4.2,4c0,2.1,1.2,3.8,3.7,3.9c2.6,0.1,4.1-1.3,4.2-3.9
	C992,1551.2,990.5,1549.9,988.3,1549.5z M973.6,1562.1c2.1-0.7,3.8-1.9,3.5-4.5c-0.3-2.3-1.8-3.6-4.1-3.5c-2.6,0.2-3.9,1.9-3.7,4.4
	C969.5,1560.7,971.1,1561.9,973.6,1562.1z M973.4,1517.7c-2.2,0.2-3.6,1.5-3.7,3.8c-0.1,2.6,1.4,4,4,4c2.4,0,3.8-1.5,3.9-3.7
	C977.7,1519.2,976,1517.9,973.4,1517.7z M989.3,1538c-0.2-2.2-1.2-3.9-3.6-4c-2.6-0.1-4.1,1.3-4.2,3.9c-0.1,2.3,1.3,3.9,3.6,4
	C987.5,1542.1,989,1540.6,989.3,1538z M965.2,1566.1c-0.1-2.3-1.2-3.8-3.5-4.1c-2.6-0.3-4.2,1.2-4.3,3.7c-0.2,2.5,1.5,4.1,4,4.2
	C963.6,1569.9,964.9,1568.4,965.2,1566.1z"/>
<path d="M-442.7,889.4c5.5,3.8,10.4,6.9,16.7,6.1c2-0.2,3.6,1.4,5.3,2.5c7,4.5,11.9,4.6,18.8-0.4c6.3-4.6,12.3-9.6,19.9-12.1
	c1.8-0.6,3-1.1,4.2,0.7c3.3,5.1,7.4,9.8,8.9,16c2.2,9.2-1.3,19.3-8.9,24.8c-1.3,1-2.9,2.2-4.4,2.1c-6.8-0.2-10.4,4.3-14,9
	c-3.8,4.9-6.1,5.2-11.3,1.9c-6-3.7-9.9-8.2-10.6-16c-1.2-13.3-9.4-22.3-20.6-28.9C-441.7,893.3-441.7,893.4-442.7,889.4z"/>
<path d="M-445.6,1598.9c-2.3-6.4-4.6-12.8-7-19.2c-0.6-1.6-0.7-3.2-0.5-4.9c5.9-42,13.9-83.5,30.3-122.8c9.7-23.2,21.8-45,41.5-61.6
	c9.2-7.7,19.7-13.4,28.7-15c-9.9,5-18.6,9.5-26.1,15.6c-1.7,1.4-3.4,2.7-4.9,4.2c-3.9,3.7-3.7,5.8,1,8.3c2.9,1.6,5.8,3.1,7.5,6.4
	c-0.7,0.1-1.3,0.3-1.7,0.1c-9.2-4-14-2.9-20.2,5.1c-7.8,10-11.8,21.9-16.1,33.6c-3.6,9.8-5.8,20.1-11.2,29.3
	c-2.3,3.9-3.5,8.5-3.6,12.9c-0.4,18.3-5.9,35.8-8.4,53.7c-2.6,18.1-5.6,36.1-8.4,54.1C-445,1598.9-445.3,1598.9-445.6,1598.9z"/>
<path d="M238.7,1500.4c-3.9-0.9-5.8-3.7-7.6-6.4c-15.9-23.4-21.1-49.3-17.7-77.1c3.2-26,13.9-49.1,27.8-71c0.3-0.4,0.7-0.6,1-0.9
	C232.6,1396.5,221.7,1448,238.7,1500.4z"/>
<path d="M239,1483.9c-2.3-7.4-3-14.5-3.7-21.5c-1.2-12.8-1.1-25.6-0.2-38.4c0.4-6,3.3-11.1,6.5-16c2.7-4.2,6-8,9.5-11.6
	c9.1-9.4,20.8-16.1,28.1-27.5c-0.4,7.6-2.6,14.7-4.4,21.9c-2.8,11.3-6.3,22.3-12.6,32.4c-7.8,12.5-11,26.6-14.3,40.8
	C246.2,1470.9,243.9,1477.6,239,1483.9z"/>
<path d="M378.8,1419.2c-5.2,10.2-11.4,18.8-18.3,26.9c-19.6,23.2-43.6,39.8-73,48.1c-1.1,0.3-2.2,0.6-3.4,0.9c-1,0.2-2,0.5-2.6-0.7
	c-0.8-1.6,0.7-1.9,1.6-2.5c0.3-0.2,0.6-0.3,0.9-0.5c21.1-8.3,33.5-25,42.5-44.7c2.3-5,5.6-8.4,10.1-11.2
	C349.4,1427.4,363.2,1422.1,378.8,1419.2z"/>
<path d="M133.8,1352.4c22,21.8,42.8,44.7,54.6,74c2.6,6.4,4.1,13,4.8,19.8c0.3,3-0.3,5.4-3.2,6.5c-2.8,1-3-2-4.1-3.4
	c-4.2-5.2-9-9.9-14.8-13.3c-13.6-8.1-20-20.5-20.8-35.5C149.4,1382.8,143.7,1367,133.8,1352.4z"/>
<path d="M887.7,1054.4c2.9-1.2,4.9-2,6.8-2.9c1.4-0.6,3-1.4,2.2-3.3s-2.4-1.3-3.8-0.7c-2.8,1-5.6,1.9-8.6,2.3
	c3.7-2.7,7.3-5.4,10.9-8.2c1.2-0.9,2.5-2.1,1.2-3.7c-1.3-1.5-2.6-0.7-3.9,0.3c-3.1,2.4-6.1,5.1-10.1,6.6c4.4-5.2,6.8-11.4,9.6-17.4
	c2.7-5.8,10.4-8.2,17.5-5.6c12.4,4.6,18.5,15.1,23.4,26.4c0.1,0.3,0.1,0.7,0.1,1c0,6.9-11.5,23.5-18,26c-5.9,2.3-14-1.7-18.3-8.8
	C894.3,1062.2,893.5,1057,887.7,1054.4z"/>
<path d="M717.8,1399.7c1.8-5.1,5.7-7.6,9.7-8.4c14.9-3,30-6.7,44.9,0.4c1.7,0.8,3.3,1.5,5,2.3c13.1,6.5,15.1,9.4,16.2,23.6
	c0.1,0.8,0.4,2-0.8,1.9c-4.1-0.3-8,2.6-12.1,0.6c-3.6-1.7-7.3-2-11.2-1.4c-15.6,2.5-29-1.5-39.7-13.4
	C726.7,1401.8,722.9,1399.7,717.8,1399.7z"/>
<path d="M931.8,941.8c1.8-1.2,3.5-1.1,5.1-1.3c2.1-0.3,5,0.3,5-2.7c-0.1-3.4-3.2-1.7-5.4-2.2c3.3-1.3,6.3-2.4,9.2-3.7
	c1.7-0.8,4.2-1.6,3.1-4.2c-1.1-2.4-3.2-1-4.8-0.3c-4.4,1.9-8.7,4.2-13.9,4.3c5.7-3.8,9.5-9.3,13.9-14.4c4.5-5.2,14-4.6,20.4,0.9
	c5.6,4.8,8.4,11.4,11,18.1c3.4,8.9,2.8,16.4-5.1,22.6c-2.2,1.7-4,4-6.3,5.7c-12.3,9-23.4,4.6-26.4-10.5
	C936.5,949.6,936.1,944.9,931.8,941.8z"/>
<path d="M854.4,799.2c2.8-3.3,5.1-5.9,7.2-8.7c1.2-1.5,3-3.5,0.8-5.1c-2.1-1.5-3.1,1-4.1,2.4c-2.3,3-4.6,6-8.1,8
	c2.8-5.6,6.1-10.9,7.7-16.9c0.6-2.4,3-6-0.1-7.1c-3.8-1.3-3.2,3.3-3.9,5.4c-2.3,6.6-5.1,12.9-10.9,19.2c1.9-8.3,1.3-15.2,0-22.2
	c-1.1-5.9,3-11.3,9.2-13.9c7.6-3.1,15.1-1.6,22.3,1.2c14.6,5.7,17.3,10,16.8,25.6c0,1.2-0.2,2.3-0.3,3.5
	c-0.8,14.7-9.6,18.4-23.4,13.8C863.4,803,859.8,799.4,854.4,799.2z"/>
<path d="M-445.2,841.2c1.9-4.5,4-8.1,6.6-11.7c5.2-7.3,7.6-17,5.9-25c-1.6-7.5,2.1-6.4,5.7-7.5c6.1-1.9,11.8-4.2,16.7-8.7
	c5-4.6,15.1-1,17.1,5.7c0.9,3.1,0.8,6.2,0.9,9.4c0.1,2.9,0.6,5.3,3.5,7.2c3.5,2.3,1.2,5.5-0.3,7.9c-1.4,2.3-2.7,5.8-6.8,3.7
	c-4.4-2.2-9.2-2.7-14.1-3c-4.2-0.3-7,1.5-8.5,5.4c-1.1,2.8-2.3,5.6-3.7,8.1c-2.9,5.1-6.9,8.5-13.4,7.3
	C-438.8,839.5-441.9,840.5-445.2,841.2z"/>
<path d="M265.6,1522.2c-4.2-2.5-4.7-5.4-3.9-9.3c3.4-17.2,11.3-32.3,21.6-46.2c16.1-21.9,36.4-39.6,58.2-55.9
	c-0.8,1.1-1.5,2.3-2.4,3.3c-8.7,10-12.3,22.8-18.2,34.3c-4.3,8.3-9.1,16.3-15.4,23.3c-7,7.7-15.9,12.5-25.2,16.7
	c-0.2,0.1-0.3,0.2-0.5,0.2c-9-1.4-8.5,5.6-9.6,11C268.7,1507,268.3,1514.7,265.6,1522.2z"/>
<path d="M819.7,815.5c0,3.9,0.2,7.5,0,11.1c-0.8,12.5-8.4,20.3-21.2,15c-6.9-2.8-12.3-7.8-17.5-13c-1-1-1.3-2.3-1.3-3.6
	c0.2-8.7,1.2-17.3,5.3-25.2c2.1-4.1,4.9-7.5,9.1-9.7c7.6-4,12.5-2.4,21.3,7.1c-4.2,0.5-8,0.9-11.8,1.4c-1.5,0.2-2.9,0.7-4.4,1.1
	c-1.4,0.4-2.6,1.1-2.3,2.7c0.4,2,2.1,1.9,3.6,1.5c6.3-1.8,12.8-2,19.3-1.6c1.8,0.1,3.7-0.1,5.5,1.4c-10.6,0.8-19.4,5.1-27.1,11.7
	c-0.9,0.8-1.7,1.6-2.5,2.4c-1,1.1-2.3,2.3-0.9,3.8c1.5,1.6,2.7,0.3,3.8-0.7c5.4-5.1,11.5-9.1,18.6-11.3c0.8-0.2,1.6-0.4,3.7-0.9
	c-5,3.7-9.2,6.1-12.5,9.7c-3.2,3.5-5.8,7.3-7.2,11.8c-0.4,1.5-0.8,3.1,1.1,3.8c2,0.6,2.5-1,3.1-2.4
	C809.4,823,812.6,819.4,819.7,815.5z"/>
<path d="M908.6,923.2c-8.3-6.2-17.4-9.9-27.8-10.3c-1.9-0.1-5-1.2-5.1,2.1c-0.1,2.8,2.8,2.1,4.7,2.2c7.1,0.6,13.9,2.3,19.9,6.7
	c-6.1-0.7-12.1-1.9-18.3-1c-3,0.5-5.9,1.2-8.5,2.6c-1.3,0.7-2.9,1.5-1.9,3.4c0.9,1.8,2.4,1.3,3.8,0.6c7.3-3.4,14.8-2.8,23.6-0.7
	c-4.7,2.2-7.2,5.7-10.3,8.3c-10.9,9.1-22.3,5.5-25.9-8.1c-1.6-6.2-1.8-12.5-1.7-18.8c0-1.6,0.4-2.9,1.6-4c6.6-6,13.7-11.3,22.5-13.5
	c15.4-3.8,23.9,4.1,22.2,20.9c-3.8-3.4-7-7-11.1-9.4c-1.6-0.9-3.5-3.1-5.1-0.6c-1.5,2.3,1.1,3,2.5,4
	C899.6,911.8,904.9,916.8,908.6,923.2z"/>
<path d="M857,1036.7c-4.6-2.9-9.2-5.9-14-8.7c-1.5-0.9-3.5-3.3-5.1-0.7c-1.6,2.6,1.3,3.3,2.8,4.3c3.9,2.5,8,4.6,12.4,8.4
	c-8.2-1.6-15.4-2.2-22.5-0.5c-1.9,0.4-5.2,0.2-4.7,3.2c0.6,3.2,3.5,1.5,5.4,1.2c7.5-1.2,14.8-1.1,22.1,1.5
	c-4.1,0.5-8.3,0.5-12.3,1.4c-5.3,1.2-10.2,3.1-14.3,6.7c-1.3,1.1-2.8,2.3-1.2,4.1c1.4,1.5,2.7,0.3,3.9-0.7
	c6.1-5.1,13.3-6.6,21.3-6.6c-2.3,3.8-4.4,7.3-6.7,10.7c-7.8,11.2-19.4,11-26.6-0.5c-3.7-5.9-5.7-12.4-7.2-19.1
	c-0.3-1.2-0.3-2.3,0.4-3.4c5.5-8.5,11.7-16.2,21.2-20.6c8.1-3.7,16.6-2.1,20.8,4C855.8,1025.9,855.1,1031.7,857,1036.7z"/>
<path d="M790.1,1510.5c1.3-8.8-2.4-16.1-3.5-23.7c-1.7-12-1.5-23.9,3.5-35.2c2.8-6.2,7.1-11.1,12.8-14.9c2.7-1.8,4.2,0,6.1,1.1
	c2,1.1,2.2,2.5,1.6,4.5c-2.6,9.2-3.7,18.3,2.4,26.8c0.6,0.8,0.5,2.2,0.4,3.4C812.9,1486.9,804,1501.9,790.1,1510.5z"/>
<path d="M329.8,1413c-32.2,27.8-63,56.3-73,100.6c-2.3-1.7-4.3-2.8-4.3-5.8c0.4-21.5,5-41.6,18.1-59.1c6.6-8.8,15.1-15.5,25.2-20
	C307.2,1423.6,318.6,1418.4,329.8,1413z"/>
<path d="M277.1,1493.3c8.7,36,3.1,70.3-4.9,104.4c-0.5,0-1.1-0.1-1.6-0.1c1-11,1.8-22,2.9-33c1.3-13.2,2.9-26.5,4.4-39.7
	c0.2-1.7,1-4.1-1.5-4.6c-2.6-0.5-2.6,1.9-2.8,3.7c-3.6,27.4-6,54.9-8.1,82.5c-0.2,2.2-1.5,5.5,2.3,6.7c0.5,0.1,0.6,1.8,0.6,2.7
	c0.2,20.8,0.4,41.6,0.6,62.4c0,1.5,0.6,3.8-1.8,3.9c-2.8,0.1-2.2-2.4-2.2-4.1c-0.1-20.1-0.2-40.3,0-60.4c0-7.3-2.2-14.1-3.2-21.2
	c-3.5-25.1-0.7-49.5,8.1-73.2c2.9-7.9,3.3-16.3,5.1-24.4C275.2,1497.4,275.1,1495.7,277.1,1493.3z"/>
<path d="M-540,1307.8c13.5,4.3,23.9,12.6,32.3,23.7c12.2,16.3,19.1,35,24.4,54.4c5.9,21.2,8.9,43,11.6,64.8c4,32,5.3,64,6,96.3
	c-3-3.9-6.5-7.2-6.6-12.9c-0.9-29.1-3.3-58.2-5.6-87.2c-0.2-2.5-0.1-5,0.1-7.5c0.4-5.7,1.1-11.5-0.9-16.9
	c-6-16.2-7.5-33.4-12.6-49.8c-2.3-7.3-4.5-14.7-9-21c-5.6-7.9-9.4-9.1-18.6-6.2c-0.4,0.1-0.9-0.1-2.1-0.2c2.6-2.9,5.4-4.3,8.5-5.6
	c5.2-2.1,5.7-4.1,1.9-8.4c-7.9-9-17.3-16-27.5-22.2C-538.7,1308.7-539.3,1308.2-540,1307.8z"/>
<path d="M217.3,1492.3c-11.3-1.5-22.4-3.7-33.3-6.5c-9.9-2.6-17.6-8.5-24.6-15.4c-10.2-10.1-20.2-20.3-30.2-30.6
	c-8.3-8.6-17.6-16.1-28-22.1c16.1,2.3,31.1,7.3,43.8,17.7c3.9,3.2,7.2,6.8,9.9,11.1c4.1,6.5,8.6,12.7,14.8,17.4c2,1.5,2,2.4,0.3,4.1
	c-1.7,1.6-3.2,3.6-2,6.2c1.2,2.5,3.7,1.8,5.8,1.8c5.8,0,11.6,0,17.4-0.4c3.9-0.3,7,0.6,10,3.3
	C206.4,1483.6,211.9,1487.9,217.3,1492.3z"/>
<path d="M-476.9,1037.2c1.6,33.1,3.8,66.1,12.7,98.3c0.8,3,0.9,5.9-3,6.6c-3.8,0.6-4.6-2.2-5.1-5.2c-5.2-32.9-10.4-65.7-15.6-98.6
	c-1.6-10.3-3.2-20.7-5-31c-0.5-2.9-0.1-4.4,3.4-3.8c2.1,0.4,4.3,0.3,6.5,0c6.2-0.7,6.1-0.8,6.1,5.8
	C-476.9,1018.6-476.9,1027.9-476.9,1037.2z"/>
<path d="M-486.8,799.4c0.3-5.8,0.7-11.1,2.9-15.7c3.7-7.7,11.6-11.1,18.2-15.8c0.4-0.3,1.2-0.5,1.4-0.3c5.2,4.1,11,0.8,16.5,1.5
	c2.7,0.3,4.9-1,7.2-1.8c3.1-1.1,5.5-0.7,6.9,2.7s-0.5,5.3-3.1,6.2c-4.9,1.8-6.3,4.7-4.8,9.6c1.3,4.3-0.8,7.5-4.1,10.4
	c-4.1,3.6-8.8,4.2-13.9,3.8c-0.5,0-0.9-0.9-1.3-1.4c-7-7.6-13.3-6.8-17.9,3c-1.4,3-2.4,3.2-5.6,2.5
	C-488.8,803.3-485.6,800.4-486.8,799.4z"/>
<path d="M812,1494.1c2.9,5,6.1,9.1,9.8,12.9c3.8,4,3.8,9.9,4.7,15c7.5,40.1,8.1,80.5,4.6,121c-1.3,15.4-3.5,30.8-6.4,46
	c-0.2,1.3-0.5,2.6-0.9,3.9c-0.7,2.5-2.2,3.8-4.8,3c-2.4-0.7-2.7-2.6-2.2-4.8c1.9-9.5,4-18.9,5.6-28.4c7.7-46.5,7.4-92.9-2.7-139.1
	c-1.9-8.6-4.5-17-7.7-25.3C811.7,1497.2,810.5,1496.1,812,1494.1z"/>
<path d="M861.8,1309.6c5,5.4,7.2,12,8.7,18.9c0.7,3.1,1,6.2,0.5,9.4c-0.6,3.8-1.9,6.5-5.8,8.4c-8.2,4.1-12.5,11.8-15.3,20.1
	c-1.1,3.3-2.2,3.7-5.1,2.3c-2.5-1.2-5.4-2.1-8.1-2.2c-4.3,0-4.7-2.3-4.9-5.7c-0.5-9.4,2.2-17.6,9-23.9c8.2-7.6,16.7-14.8,20-26.1
	C860.9,1310.3,861.6,1309.8,861.8,1309.6z"/>
<path d="M-557.3,848c-11.5,0-21.6-1-31.7,0.9c-2.8,0.5-5.5,1.3-7.8,3c-4.6,3.4-4.1,9.7,1.1,12.1c1.9,0.9,4.1,1.7,6.2,1.8
	c4.3,0.3,8,0.2,10,5.6c1.4,3.6,5.8,1.8,9,0.9c5.2-1.5,25.2-1.4,30.6,0.3c-4.2,2.6-8.2,5.2-12.2,7.7c-0.8,0.5-1.4,0.5-2.3,0.2
	c-13.6-4.8-27.8-4.5-41.9-5c-5.7-0.2-11.3-0.6-16.1-4.3c-3.1-2.4-6.7-4.2-6-9.3c0.4-2.7-5.1-5-1.5-8.3c5.4-4.9,9.7-11.7,18.1-12.3
	c12.6-0.9,24.8,1.8,37,4.7C-562.6,846.3-560.6,847-557.3,848z"/>
<path d="M870.4,1539.8c2.1-4.1,4.8-6.3,8-6.9c7.6-1.4,15.3-3.5,23.1-3.1c10.8,0.4,20.2,5,28.9,11.2c1.7,1.2,2.4,2.6,2.3,4.6
	c-0.1,1.3,0.2,2.6,0.3,4c0.1,2.2,2.5,5.4,0.6,6.2c-2.8,1.2-6.3,2.3-9.6,0.9c-3.6-1.6-7.3-1.5-11.2-1c-11.9,1.7-22.4-1.6-30.9-10.4
	C878.9,1542.3,876,1539.3,870.4,1539.8z"/>
<path d="M-555.7,761.4c6.6,0.3,12.3-0.9,16.8-5.6c1.1-1.2,2.4-0.9,3.6,0c1.1,0.8,2.2,1.5,3.2,2.4c5,4.8,10.7,6.2,17.4,4.1
	c6.4-2,2.6,3.9,4,5.9c1.6,2.3-0.6,3.2-2.7,2.9c-5.9-0.7-10.5,0.9-12.9,6.8c-0.7,1.6-1.9,1.5-3.3,0.9c-2.6-1.1-5.4-1.4-8.3-1
	c-7.7,1-10.9,5.3-9,12.8c0.7,3,1,5.1-2.5,6c-0.2,0-0.3,0.2-0.4,0.3c-2.6,1.2-3.4,5.9-6,5c-2-0.6-2.8-4.5-4.5-6.7
	c-2.2-2.9-6.1-4.3-6.4-8.9c-0.4-6.4,1.6-11.1,7-14.3C-554.3,768.6-554.1,768-555.7,761.4z"/>
<path d="M925.8,928.1c3.8-6.4,6.9-13,8.4-20.3c0.3-1.6,1-3.7-1.1-4.3c-2.6-0.7-2.7,1.8-3.2,3.5c-1.7,6.6-4.1,12.9-8.5,18.3
	c2.3-8.4,3.3-17,2.9-25.6c-0.1-1.7,0.4-4.3-2.1-4.4c-3-0.1-2.3,2.7-2.2,4.5c0.1,8.7-0.6,17.2-4,26c-2.6-4-3-7.9-3.6-11.8
	c-0.7-5.1,0.9-10.3-1.1-15.3c-0.3-0.7,0.4-1.9,0.8-2.8c4.9-9.4,12.8-15,23-17.7c1.9-0.5,3.1,0,4.3,1.4c6.6,7.9,10,16.7,9.3,27.1
	c-0.1,2.1-0.9,3.3-2.9,4c-3.6,1.3-6.1,3.9-8.1,7.1C934.8,922.3,930.9,925.9,925.8,928.1z"/>
<path d="M832,793.8c-4.6-6.7-9.6-13-15.6-18.3c-1.3-1.1-2.6-3.3-4.5-1.3s0.3,3.3,1.6,4.4c6.3,5.8,11.6,12.4,16.1,20.6
	c-5.6-1.3-9.5-4.1-13.1-7.4c-2.7-2.5-5-5.4-8.5-6.8c-1.9-0.8-2.2-2.8-2.7-4.5c-2.7-9.2-1.5-18.1,2.6-26.7c1-2.1,2.4-2.9,4.7-2.8
	c9.9,0.3,18.5,3.7,25.5,10.8c1.7,1.7,2.5,3.2,1.4,5.7c-1.6,3.5-1.1,7.2-0.3,10.8c1.3,6,1.2,11.8-1.2,18.7
	c-1.8-5.8-2.7-10.9-4.9-15.5c-1.1-2.2-2.1-4.6-3.4-6.7c-0.9-1.5-1.6-4.3-4.2-2.8c-2.3,1.4-0.4,3.2,0.4,4.7
	C828.7,782.1,831.1,787.7,832,793.8z"/>
<path d="M878,1042.3c1.9-8,3.1-14.8,2.3-21.8c-0.2-1.6,0-3.8-2.2-3.8c-2.8,0-2.2,2.4-2.2,4.1c0.2,6.5,0.3,12.9-2.5,19
	c-0.5-7.6-1.6-15-3.8-22.2c-0.4-1.3-0.9-2.5-1.4-3.8c-0.6-1.5-1.3-3-3.2-2.2c-1.8,0.8-1.4,2.4-0.8,3.9c2.2,6,3.5,12.1,4.1,18.5
	c0.3,2.9,0.6,5.9-0.3,9.5c-4.7-4.7-7-9.9-8.4-15.6c-0.4-1.5-0.3-3.1-1-4.4c-6.3-11.3,0.5-19,7.5-26.2c7.8-8.1,10-7.9,18,0
	c5.1,5,8.8,10.8,10.1,18c0.4,2.2,0.2,3.7-1.8,5.1c-3,2-4.7,5.1-5.8,8.5C885,1033.6,882.4,1037.7,878,1042.3z"/>
<path d="M183.2,1359.1c1.4,3.3,2.5,5.7,4.3,7.7c9.3,10.1,12.1,22.1,10.6,35.6c-1.9,16.3,1.4,32.2,5.1,48c2.1,8.8,2.2,17.8,3.5,27.1
	c-4.1-2.2-6.9-4.3-5-9.5c1.6-4.5,2.8-10.3,0.1-14.1c-6.1-8.7-4.8-19.2-8.8-28.3c-4-9.2-8.3-18.2-13.9-26.5c-1.1-1.7-1.8-3.6-2-5.6
	C176.1,1381.8,178.5,1370.7,183.2,1359.1z"/>
<path d="M-345.3,1023.6c9.2-6.4,18.6-12,29.1-15.3c1.9-0.6,3.7-1.3,5.6,0.2c7.7,5.8,15.3,5.5,22.9-0.2c1.3-1,2.9-1.6,5-2.3
	c-5.5,7.9-11.2,15.8,1.6,23.9c-6.9,1-11.8-0.8-16.8-1c-2.6-0.1-5.3-0.6-7.9-0.9c-4.8-0.6-8.6,0.6-11.7,4.8c-4.9,6.7-11.7,7.3-19.4,5
	c1.3-2.4,2.5-4.9,3.9-7.4c1.9-3.4,0.6-5.3-2.9-6.2C-339,1023.4-342.1,1023.5-345.3,1023.6z"/>
<path d="M748.3,1354.5c5.9-3.4,10.7-3,15.5-2.3c15,2.1,27.6,8.3,35.2,22.2c1.8,3.2,2.2,5.9-0.6,8.9c-2.9,3.3-4.3,7.5-5.4,11.7
	c-0.6,2.3-1.2,2.6-3.3,1.2c-3.9-2.5-7.9-4.8-12-7c-1.7-0.9-2.9-2.2-3.7-3.9c-2-4.2-4.5-8.2-6-12.6
	C765,1363.5,759.9,1356.5,748.3,1354.5z"/>
<path d="M832.2,1306.3c-5,8.7-4.6,13.9,1.9,22c2.4,3,3.3,5.7,0.4,9.3c-5.5,6.9-7.9,15.1-6.9,23.9c0.4,3.9-0.9,4.7-4.2,5.3
	c-7.3,1.3-7.3,1.5-8-6c-0.6-7.5-2.8-14.4-7.8-20.1c-1.9-2.2-1.5-4.2-0.8-6.5C810.8,1320.9,820.9,1313,832.2,1306.3z"/>
<path d="M-542.1,1619.6c22.9-16.4,49.8-20.4,69.1-7.2c13.4,9.2,14.1,11.6,15.2,29c-13-18-32.1-21.8-52-23.3
	C-520.2,1617.4-530.6,1617.9-542.1,1619.6z"/>
<path d="M-536,1375.5c-12.3,27.5-32.6,51-36.9,82.9c-12-23.2-8.2-44.6,9.9-61.2C-554.4,1389.4-543.7,1384.3-536,1375.5z"/>
<path d="M-336.1,1528.1c-1-19.8-7.2-37.1-15.2-54.2c-4.8-10.2-7.5-21.5-13.3-31.5c0.9-0.3,1.3-0.5,1.4-0.4
	c7.2,9.7,17.4,16.4,25.1,25.6C-322.9,1485.7-322,1507.6-336.1,1528.1z"/>
<path d="M919.5,1428.3c-9.1-1.4-16.4,1.9-24.1,2.1c-9,0.3-17.6-0.7-25.8-4.6c-2.8-1.4-4.2-2.7-2.4-6c1.6-2.9,2.6-6.3,2.5-9.6
	c-0.1-4.2,1.9-5.3,5.6-5.7c15-1.3,28.2,1.4,37.1,15.1C914.2,1422.4,916.5,1424.8,919.5,1428.3z"/>
<path d="M110.1,1375.7c2.9,7.7,5.6,14.1,9,20.2c7.6,13.5,18.2,24.1,31.4,32.2c7.8,4.8,15.7,9.3,22.9,15.1c3.7,2.9,7,6.1,9.7,10
	c4.1,5.9,5.1,6.3,11.2,2.6c2.9-1.7,4.1-1,3.7,2.1c-0.4,3.6,1.5,8.7-1.5,10.3c-2.4,1.2-5.3-3.5-7.9-5.6c-5.1-4-10-8.3-15-12.4
	c-1.3-1.1-2.8-3.2-4.6-1c-1.6,2.1,0.6,3.3,1.9,4.4c6.5,5.7,13,11.3,20.3,17.6c-6,0-11.2,0-16.2,0c-0.5-1.4,0.6-1.6,1.2-2
	c1.3-0.7,3-0.8,3.1-2.8c0.1-2.3-1.8-2.5-3.2-3.2c-6.5-3.3-11.1-8.6-14.7-14.6c-7.8-12.9-18.9-21.7-32.5-27.6
	c-1.2-0.5-2.4-1.1-3.3-2.2c-8.9-11.8-15.2-24.6-15.7-39.7C109.9,1378.2,110,1377.6,110.1,1375.7z"/>
<path d="M932.3,1633c1-8.6-3.2-15.5-3.8-23.1c-0.9-11,0-21.6,6.5-31.1c1.9-2.8,4.3-5.1,7.1-6.9c1.7-1.1,3-1.6,4.9-0.1
	c1.7,1.3,2.3,2.5,1.7,4.6c-2,7.4-2.7,14.7,1.8,21.7c1.1,1.8,0.5,4,0.3,5.9C949,1616.1,942.9,1625.5,932.3,1633z"/>
<path d="M-360.9,1011.8c3.4-6.4,4.6-13.4,9.3-19.4c6.5-8.3,13.4-15.9,22.1-21.8c7-4.7,12-11.3,16.2-18.9c-0.2,1.5-0.4,3-0.5,4.5
	c-0.3,5.1,0.5,9.7,6.3,11.5c1.2,0.4,2.3,1.4,3.2,2.3c3.4,3.9,2.5,7.2-2.3,9.1c-13,5.2-25.5,11.2-37.3,18.9
	c-5.4,3.6-10.6,7.5-14.4,12.9C-358.8,1011.7-359.3,1012.2-360.9,1011.8z"/>
<path d="M898.9,1347.5c-6.2,5.4-8.7,12.2-10.5,19.3c-1.4,5.4-5.9,7.8-10.8,9.3c-4.6,1.3-9.4,2.1-14,3.6c-2.9,0.9-3.9-1-5.3-2.4
	c-6-5.9-5.8-5.8-2.5-13.6c5.1-12.2,16.8-19.8,33-15.8c1.6,0.4,3.3,0.5,4.9,0.5C895.2,1348.2,896.7,1347.8,898.9,1347.5z"/>
<path d="M-502.8,867.3c-3.5,0.5-6.7-0.2-8.5-5.5c-2-5.9-6.6-10.3-11.7-13.9c-1.1-0.8-2.3-1.4-3.2-2.3c-2.1-2-5.3-4.4-3.9-7.2
	c1.3-2.7,5.2-2.3,8.3-1.8c1.5,0.2,2.9,0.7,4.3,1.3c11,4.8,21.1,2.7,30.7-3.8c0.8-0.6,1.6-1.3,2.5-1.6c1.4-0.5,3.2-1,4.3,0.1
	c0.9,1-0.2,2.5-0.7,3.6c-2.7,6.8-7.1,12.8-9.4,19.8c-0.4,1.1-0.8,2.2-1.1,3.3C-493.7,867.2-493.7,867.2-502.8,867.3z"/>
<path d="M218.3,1320.8c12.1,20.9,12.7,41.2-0.9,60.3c0-5.6,0-12.1,0-18.6c0-1.7,0.3-3.3,0.4-5c0.1-2-0.2-3.8-2.5-4.2
	c-2-0.4-3,1-3.7,2.6c-3.5,7.4-6.4,15-8.8,22.8c-0.3,1.1-0.7,2.2-1.3,4c-1.8-4.9-4-8.8-5.8-12.8c-2.5-5.6-0.2-11.1,2.7-16.1
	c1.2-2.1,2.8-4.3,4.8-5.7c8.7-6.3,12.9-14.9,14.4-25.2C217.7,1322.3,218,1321.8,218.3,1320.8z"/>
<path d="M-612.9,832.5c7.2-5.1,14.2-10,21.3-14.9c2.7-1.9,5.8-2.3,9-1.9c9.4,1.2,16.8,5.8,22.9,12.8c3.6,4.1,0.7,8.6,1.3,12.9
	c0.2,1.5-1.9,0.9-2.9,0.6c-14.1-3.6-28.4-5.6-42.9-6C-607.2,835.9-610.1,834.6-612.9,832.5z"/>
<path d="M-508.5,802.1c-1.4-2.5-1.8-4.5,0.6-6.4c1.2-1,1.4-2.6,0.5-4.1c-0.9-1.4-2.2-2-3.9-1.7c-1.7,0.3-2.6,1.6-2.8,3.1
	c-0.5,3.1-0.5,6.3-0.2,9.5c-1.2-2.5-5-4.3-1.6-8c1.1-1.2,1-2.8,0-4.2c-0.9-1.2-2.1-1.6-3.5-1.3c-1.6,0.4-2.4,1.7-2.7,3.3
	c-0.5,2.2,0.9,4.7-3.6,5.2c-2.6,0.3-4.4,0.2-6.6-0.8c-1.5-0.7-3.1-1.2-4.7-1.6c-4.5-1.1-7-4.6-6-8.9c1-4.5,4.7-3.9,8-4
	c0.5,0,1.1,0,1.5,0.2c5.8,3,10,1.8,12.5-4.6c0.9-2.2,17.1-4.4,19-3c4,3,5.5,8,3.7,13.4c-0.7,2.1-1.9,4.5,1.2,5.3
	c2.9,0.8,2.7-2.2,3.4-3.8c1.1-2.7,1.3-5.5,0.9-8.3c-0.2-1.2-0.4-2.5,1.2-2.8c0.9-0.2,2.1-0.1,2.9,0.3c1.6,0.7,0.7,2,0.3,3
	c-1.3,2.9-1.7,6-2.1,9.2c-0.4,2.7-0.3,5.4-4.2,6.6c-3.1,0.9-1.7,4.9-2.2,7.6c-1.4,0-2.7-0.2-3.9,0c-2.8,0.7-2.6-1.2-1.7-2.4
	c2.1-2.6,3.2-5.7-0.4-6.9c-4.1-1.5-4.5,2.6-5.2,5.4C-508.1,801.3-508.2,801.5-508.5,802.1z"/>
<path d="M-373.3,997.5c-1.7-9.3,2.3-16.3,8.1-22.9c6.9-7.9,13.2-16.3,21.2-23.2c2.1-1.8,4.1-3.9,5.9,0.3c0.3,0.8,1.4,1.7,2.2,1.9
	c5.7,1.2,3.9,3.8,1.7,7.1c-6.2,9.4-12.8,18.6-19.6,27.7c-2.2,2.9-4.6,4.8-8.3,5.5C-365.9,994.7-369.6,996.3-373.3,997.5z"/>
<path d="M855.7,1501.5c-3.3-5.6-8.2-8.5-13.6-10.9c-7.3-3.2-11.1-13.3-8.4-20.9c4.6-12.8,4.6-13.4,2.8-25.3c1.7,0.5,1.4,2,1.7,3.1
	c2.3,9.1,7.4,16.1,16,19.9c4.7,2.1,6.8,5.1,7.4,10C862.5,1486,862.2,1494.2,855.7,1501.5z"/>
<path d="M991.6,1463c6.7,8.2,9.2,16.3,8,25.4c-0.2,1.7-0.4,3.7-2.5,4.6c-7.9,3.5-12.2,10.1-14.9,17.9c-0.9,2.7-2,3.4-4.6,2.1
	c-1.5-0.7-3.2-1.4-4.8-1.4c-5.5,0.1-6.1-3.4-5.8-7.5c0.4-6.5,2.5-12.5,7.3-17.1C981.4,1480.2,989.9,1474.6,991.6,1463z"/>
<path d="M-398.4,1571.8c-11,26-19.2,53-37.2,76.9c0.1-9.3-1.8-16.9,1.5-25c6.9-17,15.2-32.9,28.5-45.9
	C-403.3,1575.7-400.8,1573.8-398.4,1571.8z"/>
<path d="M-556.6,884.5c-2.6,3.6-4.6,7-5.8,10.8c-2.1,6.5-9.2,9.2-15.4,6.1c-8.5-4.4-12.9-2.7-16.6,6.2c-1.1,2.6-1.9,5.4-3.4,7.7
	c-2.4,3.7-6.2,3.8-9.2,0.5c-5.9-6.4-2-19.6,6.3-21.8c10.5-2.8,20.8-6.1,30.8-10.2C-565.3,882-561.2,882.3-556.6,884.5z"/>
<path d="M-420.9,1519.1c-7.6-21.3-2-43.3,14-57.4c7.8-6.9,17.7-11,24.5-19.4c-4.3,7.4-5.9,16-11.9,22.6
	c-12.3,13.6-19.6,30-24.7,47.4C-419.6,1514.3-420.1,1516.2-420.9,1519.1z"/>
<path d="M-517.1,1378.4c4.5,6.3,10.2,11.1,15.8,15.9c20.7,18,23.3,38.5,14.7,62.7c-0.1,0.2-0.5,0.4-1,0.8
	c-1.7-9.4-3.4-18.6-6.4-27.5c-3.7-11.1-8.9-21.4-15.6-31C-513.9,1393.1-514.3,1385.3-517.1,1378.4z"/>
<path d="M282.9,1430.4c-0.2-7.1,1.1-13.7,4.4-19.5c4.2-7.3,5.8-15.1,6.9-23.2c1-8.1,1.5-16.3,6.1-23.4c0.5-0.8,0.7-1.9,2.6-2.2
	c-3.4,12.6,1.7,24.2,3.2,36.2c0.4,3.1,0.7,6.3,0.6,9.4c0,7.4-1.6,13.6-10.2,15.9C291.8,1425,287.6,1428,282.9,1430.4z"/>
<path d="M871.1,1076.5c5,2.7,9.6,6.8,14.9,2.2c3.7-3.2,4.2-8,2.6-12.5c-1.7-4.6-5.6-5.8-10.4-4.4c1.9-4.8,7.3-5.3,10.5-1.3
	c1.2,1.5,1.9,3.5,2.8,5.3c4.1,8.1,10.4,13.4,19.6,14.4c2.5,0.3,2.6,1.1,2.3,3.1c-1.7,11.7-9.8,16.6-22.9,13.3
	c-7.8-1.9-13.7-6.5-18.6-12.7C870.1,1081.7,870.4,1079.4,871.1,1076.5z"/>
<path d="M851,826.4c5.7-0.6,12.4,0.7,14-6.8c1-4.7-1-9.1-5.1-11.7c-4.7-3.1-8.5-0.2-11.8,3.2c-0.8-5.3,4.2-8.7,9.8-6.6
	c2.3,0.9,4.4,2.3,6.7,3.4c7.5,3.4,15.1,4.2,22.6,0.2c2-1,2.5-0.4,3.3,1.2c4.4,9.3,2.4,15.9-6.4,21.1c-9.2,5.4-18.7,5.2-28.4,1.7
	C852.9,831.2,852,829,851,826.4z"/>
<path d="M910.5,959.7c4.3,4,8,8.8,14.4,5.7c3.5-1.7,6-7.9,5.3-12.2c-0.6-3.7-3.2-5.6-9.3-6.6c0.8-1.5,1.5-3.3,3.5-2.7
	c3,0.9,6,2.2,7,5.7c0.8,2.9,1.2,5.9,2.3,8.7c2.7,7.1,7,12.9,14.6,15.3c2.2,0.7,1.8,1.7,1.2,3.2c-3.8,9.3-9.7,12.2-19.5,9.6
	c-10.6-2.9-16.6-10.4-20.7-20.1C908.5,964.2,909.2,962.1,910.5,959.7z"/>
<path d="M-447.7,752.1c-3.6,5.1-8.6,7.1-10,12c-0.4,1.4-1.6,0.7-2.5,0.2c-4.1-2.5-7.7-0.8-11,1.7c-2.3,1.7-4.4,3.5-6.7,5.2
	c-3.1,2.3-5.8,3.2-10.4,3c-5.8-0.3-9.7-2.9-14.6-4.6c-4.4-1.6-3.9-4.4-4.1-7.3c-0.2-3.2,1.9-4.7,4.9-5.3c2.8-0.5,5.7-0.8,8.4,0
	c6.3,2,11.8,0.4,17.1-2.8c4.3-2.5,8.5-4.5,13.3-0.8c1.7,1.3,4.2,0.8,6.3,0.4C-454.3,753.3-451.7,752.9-447.7,752.1z"/>
<path d="M792.8,1323c-0.2,9.1,5.4,14.5,11.2,20.3c7.2,7.3,7.7,17,7,26.6c-0.2,3-3.4,4.2-5.6,5.1c-1.9,0.8-2.1-2.1-2.8-3.4
	c-2.8-5-6.4-9.3-10.8-12.9c-8.5-6.8-10.3-16-4.6-25.3C789.1,1330.1,791,1326.9,792.8,1323z"/>
<path d="M897.2,1501c7.3-2.7,13.1-1.3,18.8,0.2c9.8,2.7,17.8,8,22.8,17.2c1.3,2.5,1.8,4.6-0.3,7.2c-1.8,2.3-3.2,5.1-4,7.9
	c-1.1,3.9-2.3,2.9-5.3,1.7c-9.9-3.9-14.1-12-17.1-21.2C909.9,1507.3,905.1,1503.5,897.2,1501z"/>
<path d="M770.7,1453.1c-3.9-0.5-8.6,0.1-10.3-3.1c-1.3-2.4,2.1-5.6,3.8-8.2c6.9-10.3,15.7-17.7,28.9-17.7c2.4,0,8.2,5.1,8.5,7.3
	c0.2,1.4-1,1.6-1.7,2.1c-5,3.2-8.5,7.8-12,12.5C783.7,1451.9,776.9,1452.2,770.7,1453.1z"/>
<path d="M784,1454.9c-2.9,10.1-3.7,19.7-2.2,29.4c0.5,3.3-0.8,4.9-3.4,6.3c-6.7,3.4-13.8,4.6-22.2,4.7c5.9-8.1,6.2-17.1,7.2-26
	c1-9.4,2.7-10.6,11.8-12.3C777.9,1456.5,780.6,1455.7,784,1454.9z"/>
<path d="M-464,1114.5c-2.1-6-2.1-10.3,1.8-15.3c12.4-16,25.7-31,40.2-45.1c1.9-1.8,2.8-1.6,4.3,0.1c1.7,1.9,3,4,3.9,6.3
	c0.7,1.7,0.7,3-1.2,4.2c-16.5,10.1-28.4,25-40.7,39.5C-458.3,1107.4-460.8,1110.6-464,1114.5z"/>
<path d="M953.9,1512.9c-0.5-9.1-1.5-17.4-7.6-24.2c-1.7-1.8-0.3-4.2,0.4-6.2c3.5-9.1,10.2-15.3,19.5-21.2
	c-3.5,8.2-1.5,14.1,3.4,19.5c1.4,1.6,1.3,3.4-0.2,5.4c-4.9,6.3-7.1,13.5-6.4,21.5c0.2,2.3-0.4,3.4-2.8,3.6
	C958.2,1511.6,956.3,1512.3,953.9,1512.9z"/>
<path d="M-387.3,831.5c-4.8,2.9-7.7,5.9-8.5,10.8c-0.4,2.7-3,2.7-5.6,2.4c-12.1-1.5-24.3-1.2-35,4.9c-7.3,4.2-14.6,5.1-22.4,4.6
	c-0.4,0-0.9-0.3-2.2-0.7c7.9-4.6,15.3-9.5,23.9-8.9c10.8,0.8,16.4-4.6,20.5-13.2c4.2-8.8,4.9-9,14.7-6.8
	C-396.7,825.7-393.7,830.7-387.3,831.5z"/>
<path d="M-352.3,1010.8c3.6-4.2,7.5-6.9,11.5-9.5c7.9-5.2,16.5-9.3,24.9-13.6c4.3-2.2,7.4-0.8,10.2,2c5.8,5.7,5.8,5.8,14.3,6.7
	c-3,4.2-7.3,5.7-11.6,5.6c-12.9-0.3-23.9,5.1-34.6,11.1c-2,1.1-3.2,1.9-5.2-0.5C-344.7,1010.5-348.4,1011.4-352.3,1010.8z"/>
<path d="M1039.3,1563c-8.9,0.6-17.3,3.4-26.1,2.4c-5-0.6-9.8-1.8-14.4-4c-2.1-1-2.7-2.1-1.7-4.3c0.9-1.9,1.8-4.1,1.8-6.2
	c0.1-5.3,2.6-6.6,7.7-7C1021.9,1542.8,1032.1,1549.9,1039.3,1563z"/>
<path d="M896.2,1450.6c-0.2,3.1,0.1,6.4,1.3,9.6c1,2.6,0.6,3.5-2.4,3.4c-10.1-0.4-19.9-7.4-23.1-17c-1.9-5.6-4.3-10.8-8.9-14.8
	c-0.9-0.7-1.9-1.4-0.9-2.9c1.1-1.6,2.1-1.1,3.3-0.4c7,4.2,14.7,6.1,22.8,6.6c2.3,0.1,3.6,1.2,4.8,2.9
	C895.6,1441.7,896.8,1445.8,896.2,1450.6z"/>
<path d="M-570.8,788.9c-4.6-1-7.9-1.9-11.3-2.4c-3.8-0.6-7.5-0.4-9.3,3.8c-1.8,4.3,0.6,7.1,3.7,9.9c5.9,5.4,11.7,11,19,14.6
	c-3.4-1-6.9-2.1-10.3-3c-5-1.3-9.8-1.3-14.4,1.6c-2.5,1.6-5.1,1.3-7.3-0.7c-5.1-4.5-9.8-9.6-17.5-9.4c-1.5,0-3-1.4-3.1-2.8
	c-0.1-2,2-1.9,3.3-2.1c5.8-0.8,10.5-3.1,15.5-6.7c4.8-3.5,10.6-6.7,16.4-8.9C-580.3,780.5-575.9,784.4-570.8,788.9z"/>
<path d="M-607.3,952c-0.1-7.9,2.2-13.7,5.6-19.2c6.2-9.9,14.6-17.7,24.1-24.3c3.7-2.6,8.8-0.8,12.8-3.4c1.2-0.8,1.2,1,1.4,1.9
	c1.4,5.1-1,8.7-4.8,11.6c-5.9,4.6-13,6.6-20,8.6c-8.1,2.3-8.2,2.3-7.6,10.5c0.5,6.9-0.7,13.3-5.1,18.7c-1,1.3-1.9,3.1-3.9,2.6
	s-2-2.5-2.2-4.1C-607.2,953.7-607.2,952.2-607.3,952z"/>
<path d="M1022.2,1496.5c-3.8,4.2-5.9,8.6-6.9,13.3c-1.3,6.2-5.5,8.8-11.1,10.1c-1.9,0.5-4.1,0.4-5.8,1.3c-4.9,2.5-8.3,0.5-11.6-3.1
	c-1-1.1-1.4-1.8-1.1-3.4c2.7-13.6,15.5-22,28.7-18.7C1016.7,1496.5,1019,1496.3,1022.2,1496.5z"/>
<path d="M906.7,1388.1c-0.6,0.5-1.1,0.8-1.3,1.1c-8.5,10.9-20.4,11.4-32.7,11.3c-2.3,0-2.7-0.8-3.2-2.6c-0.8-3-1.4-6.3-3-8.9
	c-2.6-4.2-1.6-5.7,3-6.7c7.7-1.6,15.4-2.8,23.2-1.4C897.8,1382,902.5,1384,906.7,1388.1z"/>
<path d="M-533.2,869.9c-7.5-3.3-15.2-2.9-23.1-3c-6.1-0.1-12.1-0.6-17.9,1.9c-2,0.8-2.6-0.7-3-2.2c-1-3.6-3.5-4.9-7.2-4.8
	c-2.5,0-5-0.4-7.4-0.9c-1.6-0.3-3.4-0.8-3.5-3c-0.2-2.4,1.6-3.1,3.4-3.6c2.4-0.7,4.8-1.3,7.3-1.6c10-1.1,19.9-0.1,29.9,0.6
	c1.1,0.1,1.9,0.5,2.5,1.3C-547,861.1-540.2,865.5-533.2,869.9z"/>
<path d="M870.4,1469.2c-5.6-2.2-10.7-3.9-15.4-6.2c-6.8-3.4-10.9-9.1-12.8-16.4c-0.7-2.6,0-3.8,2.6-4.8c3.9-1.4,7.7-3.4,10.7-6.3
	c2.3-2.2,3.9-1.6,5.8,0.5c5.4,6,7.2,13.4,8.3,21.1C870.1,1460.9,870.1,1464.7,870.4,1469.2z"/>
<path d="M224,1491.3c-8.7-4.5-13.6-10.7-13.6-20.6c0-14.1-4.6-27.5-6.8-41.3c-3.6-21.8,0-42.6,8.7-62.8c-0.8,15.4,0.7,30.7-2.4,46.2
	C204.3,1440.5,209.8,1466.3,224,1491.3z"/>
<path d="M-456.9,845.1c-6.5,1.7-13.7-2.3-19.5,3c-5,4.5-7,11.2-11.3,16.3c3.3-10,5.3-20.1,15.6-26.7c9.2-5.9,18.7-12.3,23.9-22.8
	c0.6-1.2,2-2.2,3.3-3c3.4-2,5.5-1,5.7,2.8c0.4,5.8-0.1,11.4-5.7,14.9c-1.5,1-2.2,2.4-2.3,4.2c-0.4,4.2-3,5.6-6.8,5.6
	c-2.8,0-5.7,0-8.5,0c-1.6,0-3.1,0.5-3.1,2.4c0.1,1.7,1.5,2,2.9,2.1C-460.8,844-458.8,843.4-456.9,845.1z"/>
<path d="M892.2,940.1c-1.1,4.8,1,7.7,4.7,10.3c-3.3,2-5.6,4.2-5.2,8c0.1,1.4-1.2,1.9-2.2,2.4c-6.5,2.8-13.3,4.3-20.4,3.9
	c-5.9-0.4-8.6-4-7.7-9.8c0.4-2.5,1.2-4.8,2.4-7c1.4-2.7,2.8-4.1,6.5-2.7C878.2,948.1,885.2,945,892.2,940.1z"/>
<path d="M824.8,827.3c2.9,3.6,6.4,3.7,10.5,2.8c-1,3.7-0.8,6.9,2.3,9.1c1.3,0.9,0.8,2,0.4,3.1c-2.4,6.6-5.6,12.8-10.8,17.7
	c-4.8,4.6-9.4,3.9-13.4-1.5c-1.6-2.2-2.3-4.7-3-7.3c-0.6-2.1-0.2-3.3,1.8-4.3C820.4,843,823.4,836,824.8,827.3z"/>
<path d="M848.4,1062.9c0.4,4.8,3.1,7.3,7.3,8.5c-2.3,2.8-4.4,5.3-2.9,8.8c0.8,1.9-0.7,2.8-1.8,3.7c-5.4,4-11.1,7.3-17.8,8.7
	c-6.2,1.3-9.6-1-10.4-7.3c-0.2-2-0.1-4,0.2-6c0.4-3.7,1.2-6.3,6.4-5.7C835.4,1074.4,842,1070.2,848.4,1062.9z"/>
<path d="M987.3,1625.7c-2.9-4.6-6.6-6.9-10.9-8.6c-6.3-2.5-9.8-11.2-7.5-17.6c0.9-2.5,2.1-4.9,2.8-7.5c0.6-2.5,0.6-5.1,1-8.5
	c3.3,8,8.8,12.7,16.1,15.4c1,0.4,1.8,0.8,2,2C993,1609.3,993.5,1617.6,987.3,1625.7z"/>
<path d="M777.3,1423.4c-9.5,5.8-15.5,13.2-20.2,21.8c-3.6,6.8-3.7,6.8,3.9,11c-5.9,1.5-10.6,4.2-15,7.4c-1.2,0.9-2.8,1.6-3.1-1.1
	c-2.8-22.2,9.9-38.7,29.8-39.8C773.9,1422.7,775,1423.1,777.3,1423.4z"/>
<path d="M-537.4,822.5c-4.6-7-7.4-7.4-14-1.2c-2.1,2-3.2,2.7-5.1-0.2c-2.8-4.3-6.6-7.8-10.4-11.3c2.1-2.3,4.7-2.3,7.1-2.3
	c4.3,0,7.5-1.6,10.3-5c4.4-5.5,17.1-4.1,20.7,2c0.6,1.1,1.2,2.2-0.9,2.4c-1.2,0.1-2.9,0.7-2.9,1.6
	C-531.9,813.9-534.8,818.2-537.4,822.5z"/>
<path d="M-411.2,1050.1c6.7-19.4,14.8-37.9,31.3-51.7c0.8,1.9-0.3,4,1.8,5c1.8,0.9,3.2-0.2,4.7-0.8c4-1.7,7.8-3.6,12.5-3.9
	c-3.3,5-9.2,7.1-13.5,10.9c-4.6,4.1-9.2,8.2-13.3,12.7c-4,4.4-8,8.9-11.9,13.4C-403.6,1040.6-407.3,1045.4-411.2,1050.1z"/>
<path d="M-492.2,1462.2c-6-2.5-10.5-5.7-14.1-10.2c-3.7-4.7-6.4-9.3-4.1-16.2c2.8-8.3,2.7-17.3,1.7-26.2
	C-498.9,1425.6-493.8,1443-492.2,1462.2z"/>
<path d="M-394.5,1472.4c-1.9,10.5-2.7,21-0.7,31.5c0.4,1.9-0.8,3.2-1.8,4.5c-5.1,6.6-11.6,11.3-20.1,14.7
	C-413.1,1504.2-405.9,1487.4-394.5,1472.4z"/>
<path d="M825.3,1475.9c-3.2-3.7-6.3-6.9-9.1-10.4c-3.8-4.8-4.2-17.6-1.2-22.6c0.9-1.5,1.8-0.9,2.9-0.6c2.7,0.7,5.5,1.9,8.2,1.8
	c5-0.1,6.3,2.7,6.7,6.8C833.8,1460.2,829.9,1468,825.3,1475.9z"/>
<path d="M933.9,1475.9c0.3,6.6,3.6,10.9,7.9,14.9c7,6.2,7.6,14.7,7.2,23.4c-0.1,2.5-2.3,3.3-4,4c-2.4,1-2.2-1.8-2.9-3
	c-2.5-4-5.4-7.5-9.1-10.5c-6.8-5.5-8.3-12.4-4.1-20.1C930.4,1481.8,932,1479.2,933.9,1475.9z"/>
<path d="M903.8,1620.2c4.2-6.5,4.9-13.5,5.4-20.6c0.5-8,2.3-9.6,10-10.9c2-0.3,3.9-0.8,6.4-1.3c-0.6,5.5-2.2,10.7-1.8,16.1
	c0.1,1.2,0,2.3,0,3.5c0.3,9.1-0.4,10.1-9.6,12.4C910.9,1620,907.7,1620.6,903.8,1620.2z"/>
<path d="M915,1584.6c-3.1-0.4-6.7,0.2-8-2.3c-1.1-2.1,1.6-4.4,2.9-6.5c5.5-8.4,12.6-14.4,23.3-15.1c4.4-0.3,5.5,3.1,7.4,5.6
	c0.9,1.1-0.6,1.7-1.3,2.2c-4.1,2.7-7,6.5-9.8,10.4C925.9,1583.8,920.1,1584,915,1584.6z"/>
<path d="M-403.4,1048.7c11.1-15,22.7-29.6,38.4-40.6c0.4,2-0.6,3.1-1.4,4.3c-0.9,1.5-1.8,3-0.6,4.6c1.2,1.6,2.9,1.1,4.5,0.6
	c4-1.2,8-2.1,12.3-2c1.1,0,2.7-0.4,2.9,1.1c0.1,0.9-0.9,2-1.7,2.9c-0.4,0.4-1.2,0.6-1.8,0.8c-19.9,4.1-36,15.2-51.3,27.6
	C-402.5,1048.3-403,1048.5-403.4,1048.7z"/>
<path d="M1021.3,1583c-0.1,2.7,0.1,5.3,1,7.8s-0.1,2.8-2.3,2.7c-7.8-0.4-16-6.3-18.5-13.8c-1.6-4.8-3.5-9.3-7.4-12.7
	c-0.7-0.7-1.7-1.4-0.9-2.5c0.8-1,1.8-0.4,2.7,0.1c5.9,3.4,12.3,5,19,5.4c2.2,0.1,3.2,1.4,4.2,3C1021,1576,1021.7,1579.4,1021.3,1583
	z"/>
<path d="M1029.9,1529.7c-1.8,1.6-3.4,2.9-4.8,4.2c-4.2,4-8.6,5.9-15,6c-7.4,0.1-11.5-0.6-13.4-8.7c-1-4.3-0.7-5.2,3.3-6
	C1010.3,1523.1,1020.4,1522.1,1029.9,1529.7z"/>
<path d="M999.3,1598.2c-7.4-3.1-14.9-4.4-19.3-11.1c-0.7-1.1-1.6-2.2-2.1-3.3c-2.9-6-2.8-6.3,3.1-9.3c1.6-0.8,3.5-1.5,4.7-2.8
	c3.6-3.9,5.9-2,8.1,1.4C998.6,1580.6,998.9,1589.1,999.3,1598.2z"/>
<path d="M267.1,1432c-2.2,6.3-3.9,11.9-3.6,17.8c0,0.9-0.4,2-0.9,2.8c-9.7,15.7-13.6,33-14.6,51.2c0,0.5-0.2,1-0.4,2.4
	c-3.6-5-5.2-10.1-7-15.2c-0.5-1.3,0.4-2.2,1.1-3.1c6.2-7.9,9.2-17.2,11.4-26.8c1.5-6.6,3.2-13.2,5.3-19.7
	C259.8,1437.1,262.2,1434.1,267.1,1432z"/>
<path d="M-402.1,1053.6c13.8-11.5,28-21.6,45.7-27.5c-0.9,1.9-1.9,3.4-0.3,4.7c1.2,1,2.5,0.2,3.8-0.2c3.6-1.2,7.3-2.5,11.2-2.4
	c1.5,0,4-1.1,4.1,1.2c0.1,1.9-1.1,4.2-3.8,4.5c-2.3,0.2-4.6,0.4-6.9,0.8c-17.8,2.9-34.1,9.9-50,18
	C-399.4,1053.2-400.2,1054.3-402.1,1053.6z"/>
<path d="M-374.1,1437.8c-2.8-0.7-7,2-8.2-3.9c-1.9-9-0.8-15.6,4-18.1c4.1-2.2,9.3-0.7,11.6,3.6c2.8,5.3,2.4,10.9,1.5,16.6
	c-0.3,1.7-1.6,1.9-3,1.9C-370.1,1437.8-371.9,1437.8-374.1,1437.8z"/>
<path d="M-475.1,834.4c0.7-2.9,1.3-5.3,1.8-7.7c0.8-3.8,0.1-7.1-3.9-8.6c-2-0.7-2.1-1.8-1.7-3.4c1.2-4.7,2.4-9.3,5-13.4
	c1.4-2.2,3.2-4,6.1-2.7c2.7,1.2,3.6,3.1,2.6,6c-0.8,2.3-0.7,4.8,1.5,6.4c3.7,2.7,2.9,6,1.5,9.3C-464.6,826.3-469,830.7-475.1,834.4z
	"/>
<path d="M-514.2,1361c0,0.4,0,1.3-0.2,2c-0.9,3.5-0.6,8.5-3.9,9.8c-4.2,1.7-9.1-0.4-13.7-1c-1.5-0.2-1.4-1.7-1.5-2.8
	c-0.1-4,0.2-8,1.6-11.8c2-5.4,5.8-7.9,10.5-7.1C-516.8,1350.9-514.1,1354.8-514.2,1361z"/>
<path d="M-525.4,867.8c-8.5-3.4-16.1-7.8-22.2-14.6c-5.1-5.8-6.2-12.7-5.6-20c0.2-2.2,1.2-4.2,2.4-5.9c1.7-2.4,3.9-5.8,6.7-5.1
	c2.4,0.6,0.4,4.4,0.6,6.7c0.4,5.1,0.2,10.2,1.4,15.3C-539.6,854.3-534.9,862.7-525.4,867.8z"/>
<path d="M-493.8,1625c4.8,0.3,8.4,2,12.2,3.2c2.2,0.7,2.5,2.2,2.5,4.2c0,11.8-0.1,23.5-1.3,36.7
	C-486.8,1654.3-490.7,1640-493.8,1625z"/>
<path d="M919,1560.4c-7.2,5-12.3,11.4-16.2,18.8c-1.9,3.6-2.3,6.2,3.4,8.1c-4.9,1.7-8.4,3.7-11.7,6.1c-1.3,1-2.4,0.9-2.6-1.2
	c-2-18,8.6-32,25.4-32.5C917.7,1559.7,918.1,1560.1,919,1560.4z"/>
<path d="M-378.4,985.2c1.5,4,1.2,6.6-2.4,9c-11.6,7.7-18.8,19.1-25.1,31.1c-4,7.5-7.1,15.4-10.1,23.4c-1.9,0-1.2-1.3-0.9-2
	c2.9-6.2,4.6-12.8,6.2-19.5C-406.2,1008.6-393.9,996-378.4,985.2z"/>
<path d="M890.8,886.6c-4.3,2.1-6.9,1.6-9.3-2.8c-8.4-15.4-18.5-29.6-31.6-41.5c-0.6-0.6-2-1.1-1.1-2.3c0.8-0.9,2-1.1,3.2-0.3
	c0.3,0.2,0.5,0.4,0.8,0.6C868.4,853.1,881.1,868.5,890.8,886.6z"/>
<path d="M961.4,1603.6c-2.5-2.8-4.8-5.2-6.9-7.7c-3.2-3.8-4-14.5-1.5-18.5c0.2-0.4,0.7-1.1,0.9-1c4,0.7,8.3,1,12,2.6
	c2.3,1.1,2.2,4.7,1.9,7.3C966.9,1592.4,964.8,1598.1,961.4,1603.6z"/>
<path d="M865,1089.5c-2.2,16.1-4.1,31.3-9.1,45.9c-0.2,0.6-0.3,1.3-0.7,1.9c-1.1,1.7-1.2,5.3-3.6,4.5c-2.8-0.9-0.4-3.7,0-5.6
	c3.7-15.3,4.9-30.9,5.9-46.5c0.1-1.3-1.3-4.4,2-3.7C861.7,1086.5,866,1085.5,865,1089.5z"/>
<path d="M818.5,1474.5c1.2,1.7,2,2.8,2.6,3.9c3,6,3,6,7.6,1.4c2.3,4.7,3.5,9.6,3.7,14.8c0.1,1.8-0.4,3.3-1.2,4.7
	c-2.7,5.5-4.3,5.6-8.8,1.6C813.7,1493.4,814.9,1484.5,818.5,1474.5z"/>
<path d="M735.9,1372.1c7.6-3.1,14.3-3.2,21.5-1.5c7.7,1.9,8.1,8.8,11.6,14.8c-7.5-2-14.3-3-21.3-2.4c-0.9,0.1-1.6-0.3-2-1.1
	C743.7,1378,740.7,1374.7,735.9,1372.1z"/>
<path d="M-366.8,938.4c4.7,4.1,9.2,4.4,14.2,1.8c1.8-1,4-1.3,6.5-0.3c-8.6,12.4-15.7,25.5-26.4,36.3
	C-366.6,964.3-362.2,952.2-366.8,938.4z"/>
<path d="M837.4,1641.4c-1.4-3-1.8-5.1-0.2-6.9c15.2-17.2,30.6-34.2,49.5-48.3c0.8,3,1.2,5.3-1.5,7.3c-17.6,13.1-32.6,29-46.7,45.6
	C837.9,1639.7,837.7,1640.6,837.4,1641.4z"/>
<path d="M-556.5,1424.1c-0.2,9.7-0.3,19.2,2.9,28.4c0.4,1.1-0.4,1.9-1.1,2.5c-3.4,3-7.3,5.2-11.6,6.6c-1.8,0.6-2.6,0.2-2.3-1.7
	C-566.8,1447.2-563,1435.2-556.5,1424.1z"/>
<path d="M-348.8,1491.6c5.1,11.9,7.7,24.2,8.1,37.1c0.1,2.5-0.8,3-2.9,1.8c-1.6-0.9-3.3-1.7-4.7-2.7c-6.7-4.6-6.9-5.1-4.3-12.7
	C-350.1,1507.4-349.3,1499.6-348.8,1491.6z"/>
<path d="M-498.7,949.2c1.5,6.3,3.9,11.3,8.1,15.4c1.2,1.1,1.2,2.6,1.5,4.1c1.5,8,2.2,16.1,1.7,24.3
	C-494.5,986.1-502.9,955.6-498.7,949.2z"/>
<path d="M-389.5,1053.9c13.3-6.9,27.2-12.7,42.3-14.9c0.8-0.1,2.3-0.2,2.3-0.2c1.1,8.3,7.3,2.6,10.8,4c0.3,0.1,0.5,0.3,1.4,1
	c-6.2,3.3-12.8,1.8-18.8,3c-6.3,1.2-12.8,1.7-19.2,2.9C-377,1050.8-383.3,1052.4-389.5,1053.9z"/>
<path d="M-561.3,802.6c-3.1,1.2-6.2,2.2-9.1,3.8c-3.3,1.8-6.3-1.3-8.2-3.8c-1.8-2.4-3.5-4.6-6.3-6c-1.6-0.8-3.1-2.3-2.1-4.5
	c0.9-1.9,2.7-1.6,4.3-1.2c4.2,1,8.5,1.8,12.6,3C-565.8,795.2-562.6,797.9-561.3,802.6z"/>
<path d="M-538.4,828.9c2.1,2.5,2.9,4.2,2.8,7.1c-0.4,6.6,3.7,11.1,8.9,14.6c5.5,3.7,9.6,8.5,12.3,14.7
	C-530.1,865.1-539.1,851.6-538.4,828.9z"/>
<path d="M-342.7,1050.8c-15.3,8.2-31.5,12.1-49,9.2C-375.9,1054.1-359.4,1052-342.7,1050.8z"/>
<path d="M-529.7,832c3.6-4.4,7.4-4.1,11.2-3.4c3.4,0.6,6.8,1.6,10.2,2.2c6.8,1,13.2,0.1,18.7-4.6c2.4-2.1,5.3-3.5,8.5-3.9
	c1.7-0.2,3.6-0.2,3.7,2.2c0.1,2-0.5,3.7-3.1,3.3c-3.7-0.5-6.6,1.2-9.6,3.2c-8,5.3-16.5,6.9-25.6,2.9C-520,832-524.4,831.8-529.7,832
	z"/>
<path d="M819,1653.5c0.3,6.3-1.7,10.4-4.8,14.3c-6,7.6-11.5,15.5-17.3,23.2c-1.2,1.6-2.5,4.3-5.1,2.4c-2.5-1.8-0.6-3.8,0.8-5.5
	C801.2,1676.7,809.8,1665.5,819,1653.5z"/>
<path d="M955.9,1605.3c2.9,0.8,2.2,10.2,8.3,3c2,4.8,3.7,9.2,2.7,14.1c-0.5,2.4-1.7,4.6-4,5.3c-2,0.6-3-1.7-4.2-2.9
	C952.8,1619.2,952.3,1612.6,955.9,1605.3z"/>
<path d="M912.6,1527c-5.5-1.2-10.4-2.2-15.4-1.8c-1.3,0.1-2.6,0.1-3.4-1.4c-1.5-3.2-4.3-5.3-7.4-7.2
	C898.7,1511.1,908.3,1514.9,912.6,1527z"/>
<path d="M-610.2,919.1c-5.3,2-10.6,3.1-13.8-0.6c-3.4-4.1-0.1-8.8,2.4-12.7c2.2-3.4,5.1-6.1,9.5-8.2
	C-614.7,905.3-615.6,912.4-610.2,919.1z"/>
<path d="M917,872.1c-2.8-0.1-5.9,0.1-6.3-1.4c-0.7-2.8-1.5-5.6-2.2-8.3c-0.1-0.4,1.6-1.6,2.6-1.9c5.1-1.4,9.9,0,14.5,2.1
	c1.8,0.8,1.2,2,0.5,3.2C924,869.7,920.7,871.9,917,872.1z"/>
<path d="M833.2,961.8c0-5.6,1.4-6.6,6.4-4.4c2.6,1.2,5,2.7,6.9,4.8c3.2,3.5,2.9,5.3-1.2,7.3c-2,1-2.8,5-6.4,2.2
	C835.5,969.2,833.2,965.8,833.2,961.8z"/>
<path d="M922.8,829.1c-0.3,5.6-3,9-7.9,10.8c-2,0.7-4.2,1.6-5-1.7c-0.1-0.4-0.6-0.8-0.8-1.2c-0.7-1.6-4-0.9-3.4-3.5
	c0.7-2.5,2.8-4,5.1-5.2c2.7-1.3,5.6-1.9,8.6-2.2C922.1,825.7,923.2,826.7,922.8,829.1z"/>
<path d="M827.5,989.6c1.7,0.3,3.6,0.4,5.3,0.8c5.1,1.4,5.9,3.2,3.1,7.6c-1,1.6-0.1,4.7-3.6,4.4c-3.4-0.3-6.6-0.8-8.9-3.6
	c-1.8-2.2-3.9-5-2.8-7.5C821.6,989,825.1,990.2,827.5,989.6z"/>
<path d="M896.6,966.2c5.9,0.3,6.4,3.2,5.1,7.6c-2.2,7.7-5.2,15.1-8.3,22.4c-0.4,0.9-0.6,2.8-2.2,1.9c-1.3-0.7-2.1-1.9-1.4-3.8
	c1.6-4,3.3-8,4.3-12.2C895.4,976.9,896,971.7,896.6,966.2z"/>
<path d="M-497,996.8c-8.2-5.2-14.8-11.7-19-20.5c-0.6-1.2-1.9-2.7-0.5-4.1c1.1-1.2,2.5-2.8,3.9-2.9c1.9-0.2,1.6,2.2,2,3.4
	C-507.4,981.5-502.2,989.1-497,996.8z"/>
<path d="M-484.3,970.1c1.1,0.3,1.4,0.3,1.7,0.4c9.8,4.5,9.8,4.5,5.5,14.8c-1.3,3.2-2.8,6.3-5.9,10.2
	C-482.7,986.4-482.8,978.4-484.3,970.1z"/>
<path d="M-602.1,818.9c-3.7,3.4-7.3,6.5-11.7,8.6c-3.1,1.5-6,1.2-7.2-2.6c-1.1-3.4,0.8-5.3,4.1-6.1
	C-612.1,817.7-607.2,818.3-602.1,818.9z"/>
<path d="M-505.9,952.6c1.5,6.5,2.3,13.1,4.1,19.4c1.9,6.4,4.3,12.6,6.9,18.7c-6.3-7.4-11.5-15.7-13-25.3
	C-508.4,961.7-504.9,957.3-505.9,952.6z"/>
<path d="M854.4,821.8c-3.1,0.2-5.3-0.9-5.7-4.1c-0.2-1.3,6.1-6.8,7.5-6.4c3.5,0.8,4.6,3.9,4.5,6.8
	C860.6,822.1,857,821.4,854.4,821.8z"/>
<path d="M-445.2,806.8c-6,2.6-7.7,7.9-11.7,13.1c0.7-5.3,0.2-8.8-3-11.9c-2.3-2.2,0.7-3,2.2-3.3C-453.6,803.8-450,805.7-445.2,806.8
	z"/>
<path d="M881,1065.9c3.6,0.1,4.1,2.3,3.8,4.8c-0.3,2.6-0.5,5.9-4.2,5.3c-3.2-0.6-7.5-1.5-7.3-5.8
	C873.4,1064.8,878.8,1067.7,881,1065.9z"/>
<path d="M871.3,1048.9c2.6,0.2,5.3,0.4,4.9,3.7c-0.4,3.5-1.1,7.2-4.5,9.2c-1,0.6-5.8-7.1-5.6-9.3
	C866.3,1049,869.1,1049.2,871.3,1048.9z"/>
<path d="M916.2,932.3c2.3,0.9,5.5,0.6,5.7,4.3c0.1,2.3-5.5,9.1-6.9,8.3c-3.5-1.9-2.4-5.8-3-8.9C911.5,933.2,913.7,932.4,916.2,932.3
	z"/>
<path d="M925.6,955.3c-0.7,2.8-1.4,5.7-4.7,6.3c-2.1,0.4-7.2-4.9-6.8-7c0.3-1.6,0.8-4.2,3.4-3C920.1,952.7,925,949.5,925.6,955.3z"
	/>
<path d="M908.1,942.9c-2,1.2-2.3,4.6-5.3,3.7c-2.5-0.7-6.9,0.2-6.1-4.6c0.5-3,2-6.2,5.6-5.8C905.7,936.6,906.3,940.3,908.1,942.9z"
	/>
<path d="M887,872.3c4.2-11,8.2-20.6,13.9-29.4c0.5-0.8,1.2-1.6,1.9-2.3s1.6-1.6,2.5-0.8c1.2,1,0.6,2.1-0.4,3c-2.8,2.7-4.8,6-6.7,9.2
	c-2.7,4.4-5.1,9-6.3,14C891.4,868.6,889.7,869.9,887,872.3z"/>
<path d="M858.3,1066.4c-3.1,0.3-5.4-0.2-5.2-3.4c0.2-3,0.8-6.5,4.5-6.6c3,0,6.2,2.4,6.2,5.3C863.9,1064.6,861.7,1067.4,858.3,1066.4
	z"/>
<path d="M-445.4,801.7c6.5-4.4,10-10,7.9-18.2c-0.8-3.2,3-2.7,4.5-4.3C-429.9,787.7-436.1,799.3-445.4,801.7z"/>
<path d="M833.3,816.3c2.4-0.2,4.8,0.6,4.4,4.6c-0.4,3.7-3.5,5.1-6.1,5.1c-3.6,0.1-3.7-3.8-4-6.4C827.3,816.3,830,816.2,833.3,816.3z
	"/>
<path d="M-479.4,1123.3c1.5,5.1,2.8,9.4-1.1,13.5c-1.5,1.5-2.9,3-5.1,1.6c-2.1-1.4-1.9-3.4-0.6-5.2
	C-484.1,1130-481.9,1126.9-479.4,1123.3z"/>
<path d="M853.7,1005.1c-0.4-10.3-2.3-19.9-7-28.8c-0.6-1.1-0.4-2,0.6-2.5c1.2-0.6,1.8,0.4,2.3,1.2c1.9,3,2.7,6.4,3.4,9.8
	c0.9,5.1,1.7,10.1,2.5,15.2C855.8,1001.8,856.1,1003.6,853.7,1005.1z"/>
<path d="M842.7,808.6c-0.6,1.5,0.8,3.6-1.5,4.2c-1.7,0.4-7.7-4.8-7.4-6.3c0.6-3,3.1-4.9,5.6-4.8C843.4,802.1,842,806.1,842.7,808.6z
	"/>
<path d="M843.9,836.3c-2.4-0.3-5-0.1-4.6-3c0.4-2.3,0.4-5.6,4-5.9c4-0.3,5.3,2.9,5.4,5.7C849,836.4,845.6,835.7,843.9,836.3z"/>
<path d="M906,957.8c-1.4,1.8-0.4,5.1-3.7,5.3c-2.2,0.2-6.4-3.9-5.9-5.9c0.8-3.2,3.9-3.5,6.4-3.6C905.1,953.4,905.3,956,906,957.8z"
	/>
<path d="M866.1,1077.8c-0.2,2,0.4,4.9-3,4.4c-2.8-0.4-6.1-1.2-6-4.7c0.1-2.9,3.2-4.6,5.6-4.6
	C864.6,1072.9,866.9,1074.8,866.1,1077.8z"/>
<path d="M-512.9,815c-5.3,0.3-6.3,1.6-5.8,8.9c-1.6-4.8-3.4-8,0.8-11.4c2.3-1.9,0.8-5.4-2.1-6.1c-1.3-0.3-3.4,1-3.5-1.3
	c-0.1-1.1,1.4-2.3,2.5-4C-519.1,806.8-513.3,809.3-512.9,815z"/>
<path d="M-464.4,850.3c-5.9,3.4-10.3,7.1-15.7,11.9C-475.4,851.2-472.7,849-464.4,850.3z"/>
<path d="M-471.1,1598.7c2.7,4.9,5.4,9,6.9,14.1C-470.4,1610.1-473.5,1606.2-471.1,1598.7z"/>
<path d="M-500.4,826c-3-1.9-6.2-3.5-3.8-8c1.2-2.2-0.1-4.2-2.6-5c-1.5-0.4-2.4-1.3-2-2.9c0.2-0.7,1.1-1.6,1.6-1.6
	c1.4,0.1,1.3,1.7,1.9,2.6C-502,815.4-502.6,821.2-500.4,826z"/>
<path d="M-591.4,913.8c1-4.2,1.9-7.1,4.2-9.4c1.7-1.6,4-1.7,5.3-0.1c1.7,1.9-1,2.5-2,3.4C-585.9,909.5-588.2,911.2-591.4,913.8z"/>
<path d="M890.4,876.2c3.2-4,6.6-7.6,11.5-9.2c1.2-0.4,2.8-1.2,3.5,0.5c0.7,1.8-1.1,2.2-2.3,2.4C898.3,870.8,894.5,873.7,890.4,876.2
	z"/>
<path d="M851.4,1011.2c-2.8-3.1-5.7-6-9.6-7.8c-1.3-0.6-2.7-1.3-1.8-2.9c1-1.6,2.4-0.4,3.4,0.2
	C847.5,1003.2,849.8,1006.9,851.4,1011.2z"/>
<path d="M-496.1,810.1c0.2,4.5-1.8,9.7,4.7,11.9c-1.8,0.4-2.6,3.9-4.9,0.9C-498.9,819.5-498.9,812.8-496.1,810.1z"/>
<path d="M-503.4,1588.8c0.3,3,0.5,6,0.9,8.9c0.3,2.1-0.7,2.7-2.5,2.6c-2.3-0.1-1.5-1.6-1.3-2.8c0.6-2.9,1.3-5.8,2-8.7
	C-504,1588.7-503.7,1588.7-503.4,1588.8z"/>
<path d="M-473.3,988.7c1.2-3.8,2.4-7.6,3.6-11.3c0.3-1,0.5-2.7,2.1-2.1c1.6,0.6,0.4,2.1,0.1,3C-468.8,982.2-470.6,985.9-473.3,988.7
	z"/>
<path d="M-508,826c-2.1,0.1-4,0.4-5-1.5c-1.5-2.7,2-3.3,1.9-6.2C-509.8,821.4-509,823.5-508,826z"/>
<g>
	<path class="st0" d="M75,119.7c-13.4,0-26.6,0-40,0c-0.9,0-1.2-0.2-1.2-1.2c-0.1-3.3,0.8-4.3,4.1-4.1c3,0.1,6,0,9,0.1
		c0.9,0,1.2-0.2,1.2-1.2c0-11.2,0-22.5,0-33.7c0-5.7,0-11.4,0-17c0-1.4,0-1.4-1.5-1.4c-0.6,0-1.3,0-2,0c-1.2,0-2-0.9-2.1-2
		c-0.1-1.1-0.1-2.3,0-3.5s0.8-1.8,1.9-1.9c0.3,0,0.6,0,0.9,0c20.1,0,40,0,60.1,0c0.8,0,1.6,0.1,2.1,0.7c0.9,0.9,0.9,5.2-0.1,6
		c-0.4,0.3-0.9,0.6-1.5,0.6c-0.8,0.1-1.6,0.1-2.5,0c-0.7,0-1.1,0.1-1.1,0.9c0,3.2-0.1,6.4-0.1,9.6c0,13.7,0,27.6,0,41.4
		c0,1.3,0,1.3,1.3,1.3c3.2,0,6.3,0,9.5,0c2,0,3,0.9,3,2.8c0.1,2.5,0.1,2.5-2.4,2.5C100.9,119.7,88,119.7,75,119.7L75,119.7z
		 M76.4,114.3c7.2,0,14.3,0,21.5,0c0.7,0,0.9-0.2,0.9-0.9c0-3.3,0-6.6,0-9.9c0-0.6-0.2-0.9-0.9-1.1c-1.7-0.5-3.5-2-3.5-4.6
		c0.1-5.3,0-10.6,0-15.9c0-0.4,0-0.8-0.1-1.3c-8.1,2.4-14.3-0.4-19.3-6.7c-5,6.1-11.1,9.1-19.1,6.7c0,0.7,0,1.3,0,1.8
		c0,5.1,0,10.3,0,15.4c0,2.6-1.2,4-3.6,4.7c-0.6,0.1-0.9,0.5-0.9,1.1c0,3.3,0,6.5,0,9.8c0,0.9,0.3,1.1,1.1,1.1c3.2,0,6.4,0,9.6,0
		c3.8,0,7.7,0,11.5,0L76.4,114.3L76.4,114.3z M75.2,54.2L75.2,54.2c-9.8,0-19.6,0-29.5,0c-0.4,0-0.8,0-1.2,0.1
		C43.5,54.3,43,54.9,43,56c0,0.7,0,1.4-0.1,2.1c-0.1,1.9,0.6,2.5,2.5,2.5c17.9,0,35.8,0,53.6,0c2.1,0,4.1,0,6.2,0c1.4,0,2-0.6,2.1-2
		c0.1-0.9,0-1.9-0.1-2.8c-0.1-0.8-0.6-1.3-1.3-1.4c-0.4-0.1-0.7-0.1-1.1-0.1C95,54.2,85.1,54.2,75.2,54.2z M75.1,119
		c12.9,0,25.9,0,38.8,0c2,0,2.1-0.1,1.8-2.1c-0.1-1.2-0.9-1.8-2.1-1.9c-0.4,0-0.8,0-1.2,0c-25.1,0-50.2,0-75.2,0
		c-2,0-2.7,0.7-2.7,2.7c0,1.3,0,1.3,1.3,1.3C48.8,119,62,119,75.1,119z M75.1,62c-5.9,8.8-13.7,10.8-23.5,6.3c0,1.8,0,3.4,0,5.1
		c0,0.2,0.3,0.6,0.6,0.6c3.3,1.8,6.9,2.5,10.6,1.5c6-1.5,9.8-5.5,11.8-11.3c0.1-0.3,0.2-0.6,0.4-0.9c0.3,0.3,0.5,0.6,0.6,0.9
		c0.8,1.6,1.3,3.3,2.4,4.9c4.5,6.7,12.5,8.8,19.8,5.1c0.3-0.1,0.8-0.5,0.8-0.7c0.1-1.7,0-3.3,0-5.1C88.8,73.1,81,71,75.1,62z
		 M75.1,65c-1.5,4.1-3.8,7.2-7.4,9.4c-3.6,2.1-7.5,2.6-11.6,1.8c0,1.1-0.1,1.9,0,2.8c0,0.3,0.4,0.8,0.7,0.9c2.2,0.8,4.5,1.1,6.9,0.6
		c4-0.8,7.3-3,10-6c0.5-0.6,0.9-1.1,1.4-1.7c0.3,0.4,0.6,0.6,0.8,0.9c1.5,1.4,3,3.1,4.7,4.3c4,2.8,8.4,3.4,13,2
		c0.3-0.1,0.8-0.4,0.9-0.6c0.1-1.1,0.1-2,0.1-3C84.9,77.8,78.8,73.6,75.1,65z M75.7,61.2c0.2,0.6,0.4,0.9,0.6,1.3
		c4.1,7.7,14.7,10.2,21.8,5.2c0.3-0.2,0.6-0.7,0.6-1.1c0.1-1.4,0-2.8,0.1-4.3c0.1-0.9-0.2-1.3-1.2-1.2c-6.9,0-13.7,0-20.7,0
		C76.5,61.1,76.2,61.1,75.7,61.2z M74.5,61.2c-0.4-0.1-0.6-0.1-0.9-0.1c-7,0-14.1,0-21.1,0c-0.6,0-0.9,0.2-0.9,0.9c0,1.4,0,3,0,4.4
		c0,0.6,0.2,0.9,0.7,1.3c7.2,4.7,17.4,2.2,21.6-5.3C74.1,62,74.3,61.7,74.5,61.2z M101.8,87.8L101.8,87.8c0-7.7,0-15.4,0-23.2
		c0-0.9,0-1.9,0-2.8c0-0.2-0.1-0.6-0.4-0.7c-1.3-0.5-2.1,0-2.1,1.4c0,12.1,0,24.2,0,36.3c0,4.7,0,9.6,0,14.3c0,0.3,0.1,0.9,0.2,1.1
		c0.6,0.1,1.3,0.1,1.9,0c0.1,0,0.3-0.7,0.3-1.1C101.8,104.7,101.8,96.2,101.8,87.8z M48.6,87.7c0,8.4,0,16.9,0,25.4
		c0,0.2,0,0.5,0,0.7c0.1,0.1,0.1,0.4,0.3,0.5c1.3,0.5,2.1-0.1,2.1-1.4c0-0.1,0-0.1,0-0.3c0-13.3,0-26.5,0-39.8c0-3.6,0-7.1,0-10.6
		c0-0.3-0.1-0.8-0.3-0.9c-1.1-0.6-2.1,0.1-2.1,1.2C48.6,70.8,48.6,79.3,48.6,87.7z M51.8,74.7c0,9.1,0,18.1,0,27.1
		c2,0,3.7-1.6,3.7-3.6c0-7.1,0-14.2,0-21.3c0-0.2-0.1-0.7-0.3-0.8C54,75.5,53,75.1,51.8,74.7z M98.7,74.7c-1.1,0.4-1.8,0.8-2.6,1.1
		c-0.7,0.2-1.1,0.6-1.1,1.4c0,6.7,0,13.5,0,20.1c0,0.6,0,1.2,0.1,1.8c0.3,1.6,2,2.8,3.4,2.7C98.7,92.8,98.7,83.8,98.7,74.7z"/>
	<g>
		<g>
			<path class="st1" d="M95,46L95,46C95,46,95,46,95,46L95,46z"/>
			<path class="st1" d="M88.2,45.2L88.2,45.2C88.2,45.2,88.2,45.2,88.2,45.2C88.2,45.2,88.2,45.2,88.2,45.2z"/>
			<path class="st1" d="M90.2,41.8L90.2,41.8L90.2,41.8L90.2,41.8z"/>
			<path class="st1" d="M81.4,39.3L81.4,39.3L81.4,39.3L81.4,39.3z"/>
			<path class="st1" d="M72.5,34.4c0.1,0.1,0.1,0.1,0.2,0.1c0.4,0.1,0.8,0.1,1.1,0.1c0.4,0.1,0.7,0.1,1.1,0.1c0.4,0.1,0.7,0.1,1,0.2
				c0.4,0.1,0.7,0.1,1.1,0.2c0.6,0.1,1.2,0.1,1.8,0.3c0.1,0.1,0.2,0.1,0.3,0.2c0.1,0.1,0.2,0.1,0.3,0.2s0.2,0.1,0.3,0.1
				c0.1,0.1,0.2,0.2,0.4,0.3c0.1,0.1,0.2,0.2,0.3,0.3c0.1,0.1,0.3,0.3,0.4,0.5c0.1,0.1,0.2,0.4,0.3,0.6c0.1,0.3,0.2,0.5,0.3,0.8
				s0.1,0.5,0.1,0.8l0,0l0,0l0,0l0,0l0,0c0,0.1-0.1,0.4-0.1,0.5c0,0.1-0.1,0.1-0.1,0.2c0,0.1-0.1,0.1-0.1,0.1l0,0l0,0c0,0,0,0,0,0.1
				c-0.1,0.1-0.1,0.3-0.2,0.4c-0.1,0.1-0.1,0.1-0.2,0.2c-0.1,0.1-0.2,0.1-0.3,0.2l0,0l0,0l0,0c-0.1,0.1-0.3,0.1-0.4,0.1l0,0l0,0l0,0
				l0,0c0,0,0,0-0.1,0l0,0l0,0l0,0l0,0l0,0l0,0c-0.1,0-0.2,0-0.4,0c-0.1,0-0.2,0-0.4,0c-0.1,0-0.1,0-0.2,0c-0.1,0-0.1-0.1-0.2-0.1
				c-0.1-0.1-0.2-0.1-0.3-0.1c-0.1-0.1-0.3-0.2-0.4-0.4c-0.1-0.2-0.3-0.4-0.4-0.6c0-0.1,0-0.1-0.1-0.1h0.1c0.1,0.1,0.4,0.1,0.5,0.1
				c0.4,0,0.8-0.1,1.1-0.4c0.1-0.1,0.3-0.2,0.4-0.4c0.1-0.1,0.1-0.1,0.1-0.1c0.1-0.1,0.2-0.2,0.2-0.4c0-0.1,0-0.1-0.1-0.2
				s-0.1-0.1-0.1-0.1c-0.1,0-0.1-0.1-0.2-0.1c-0.1-0.1-0.3-0.1-0.5-0.1c-0.2-0.1-0.5-0.1-0.7-0.1c-0.1,0-0.2,0-0.3,0.1
				c-0.1,0-0.2,0.1-0.3,0.1c-0.2,0.1-0.4,0.2-0.5,0.4c-0.1,0.1-0.2,0.4-0.2,0.6c0,0.1,0,0.1,0,0.2s0,0.1,0.1,0.2
				c0,0.1,0.1,0.1,0.1,0.2s0.1,0.1,0.1,0.2c0.1,0.1,0.2,0.4,0.4,0.5c0.1,0.2,0.4,0.4,0.6,0.5c0.1,0.1,0.3,0.1,0.4,0.2
				c0.1,0,0.2,0.1,0.3,0.1c0.1,0.1,0.4,0.1,0.5,0.1s0.4,0,0.5-0.1c0.1,0,0.4-0.1,0.5-0.1c0.1-0.1,0.3-0.1,0.4-0.3l0,0
				c-0.1,0.1-0.1,0.2-0.1,0.4c-0.1,0.2-0.1,0.4-0.1,0.6c0,0.1,0,0.2,0,0.4c0,0.1,0,0.1,0,0.2s0,0.1,0.1,0.2c0,0.1,0.1,0.1,0.1,0.1
				c0.1,0,0.1-0.1,0.1-0.1s0,0,0-0.1s0-0.2,0-0.3s0-0.2,0-0.3c0-0.2,0.1-0.4,0.1-0.6c0.1-0.1,0.1-0.4,0.1-0.5v0.1
				c0.1,0.1,0.1,0.3,0.1,0.4c0.1,0.1,0.1,0.4,0.3,0.5c0.1,0.1,0.2,0.3,0.3,0.4c0.1,0.1,0.2,0.2,0.4,0.4c0.1,0.1,0.2,0.1,0.3,0.1
				s0.1,0,0.1-0.1l0.1-0.1l0,0v-0.1c0-0.2,0-0.4,0-0.6c0-0.2-0.1-0.4-0.1-0.6c0-0.1-0.1-0.3-0.1-0.5c-0.1-0.1-0.1-0.3-0.2-0.4
				c-0.1-0.1-0.1-0.1-0.1-0.2c-0.1-0.1-0.1-0.2-0.3-0.4c-0.1-0.1-0.1-0.1-0.1-0.1c0,0,0,0,0-0.1s-0.1-0.1-0.1-0.1l0,0l0,0
				c0,0,0-0.1,0.1-0.1c0.1-0.3,0.1-0.6,0.1-0.9c0-0.1,0-0.3,0-0.4s-0.1-0.2-0.1-0.4l0.1,0.1c0.1,0.1,0.1,0.1,0.3,0.2
				c0.1,0.1,0.2,0.1,0.4,0.2c0.2,0.1,0.4,0.2,0.6,0.4c0.1,0.1,0.2,0.1,0.3,0.1c0.1,0,0.1,0.1,0.1,0.1c0.1,0,0.1,0.1,0.1,0.1
				c0.1,0,0.1,0,0.1-0.1l0,0V39c0,0,0-0.1-0.1-0.1s-0.1,0-0.1-0.1c-0.1-0.1-0.2-0.1-0.3-0.1c-0.1-0.1-0.3-0.1-0.4-0.2
				c-0.1-0.1-0.2-0.1-0.4-0.2s-0.2-0.1-0.4-0.2C82.2,38,82.2,38,82.1,38c-0.1-0.1-0.1-0.1-0.2-0.2s-0.1-0.2-0.2-0.3
				c0,0-0.1,0-0.1-0.1c-0.1-0.1-0.1-0.3-0.2-0.4c-0.2-0.3-0.4-0.6-0.7-0.9c-0.1-0.1-0.2-0.2-0.4-0.4c-0.1-0.1-0.2-0.1-0.4-0.2
				c0.2,0,0.4,0.1,0.6,0.1c0.4,0.1,0.7,0.1,1.1,0.2c0.4,0.1,0.9,0.1,1.3,0.3c0.2,0.1,0.4,0.1,0.6,0.1s0.4,0.1,0.6,0.1
				c0.4,0.1,0.6,0.2,0.9,0.4c0.4,0.1,0.7,0.3,1.1,0.5c0.6,0.3,1.3,0.6,2,0.9c0.3,0.1,0.6,0.3,0.9,0.4c0.1,0.1,0.1,0.1,0.1,0.1
				c0.1,0.1,0.1,0.1,0.2,0.2c0.3,0.4,0.6,0.7,0.8,1.1c0.1,0.2,0.2,0.5,0.3,0.8s0.1,0.6,0.2,0.9l0,0l0,0l0,0l0,0
				c0,0.1,0.1,0.3,0.1,0.4s0,0.4,0,0.5s0,0.3-0.1,0.4c0,0.1-0.1,0.3-0.1,0.4c-0.1,0.1-0.1,0.3-0.2,0.4c-0.1,0.1-0.1,0.3-0.2,0.4
				c-0.1,0.1-0.1,0.1-0.1,0.1c-0.1,0.1-0.2,0.1-0.3,0.2c-0.2,0.1-0.4,0.1-0.6,0.2c-0.1,0-0.1,0-0.2,0c-0.1,0-0.1,0-0.2,0
				c-0.1,0-0.2,0-0.4,0c-0.1,0-0.2-0.1-0.3-0.1c-0.1-0.1-0.2-0.1-0.3-0.1c-0.2-0.1-0.4-0.3-0.5-0.4C87.1,44.1,87,44,87,43.8H87
				c0.1,0,0.1,0,0.1-0.1c0.3-0.1,0.6-0.4,0.9-0.6c0.1-0.1,0.1-0.3,0.2-0.4c0.1-0.1,0.1-0.4,0.1-0.5c0-0.1,0-0.1,0-0.2s0-0.1,0-0.2
				c0-0.1-0.1-0.2-0.1-0.2c-0.1-0.1-0.1,0-0.3,0c-0.1,0-0.1,0-0.1,0.1c-0.1,0-0.1,0.1-0.1,0.1h-0.1c-0.1,0-0.3,0.1-0.4,0.1
				c-0.1,0-0.1,0.1-0.3,0.1s-0.2,0.2-0.3,0.3c-0.1,0.1-0.1,0.3-0.1,0.4c-0.1,0.1-0.1,0.3-0.1,0.5c0,0.1,0,0.2,0,0.4s0.1,0.2,0.1,0.4
				s0.1,0.3,0.3,0.4c0.2,0.3,0.4,0.5,0.7,0.7c0.1,0.1,0.3,0.1,0.5,0.2c0.1,0.1,0.4,0.1,0.5,0.1l0,0l0,0c0.2,0,0.4,0,0.6,0
				c0,0,0,0,0.1,0c0,0-0.1,0-0.1,0.1l0,0l0,0l0,0l0,0c-0.3,0.1-0.6,0.3-0.9,0.4c-0.1,0-0.1,0-0.2,0s-0.2,0-0.3,0.1
				c-0.1,0-0.1,0.1-0.1,0.1c0,0.1,0.1,0.1,0.1,0.1c0.1,0,0.2,0,0.3-0.1c0.1,0,0.3-0.1,0.4-0.1c0.2-0.1,0.4-0.1,0.6-0.2
				c0.2-0.1,0.4-0.2,0.6-0.4c0.1-0.1,0.2-0.1,0.3-0.2c0.1-0.1,0.1-0.1,0.2-0.2l0,0l0.1-0.1l0,0l0,0l0,0c0.1-0.1,0.1-0.1,0.2-0.2
				c0.1-0.1,0.1-0.2,0.2-0.4c0,0.1,0,0.1,0.1,0.3c0.1,0.2,0.1,0.4,0.2,0.6s0.2,0.4,0.4,0.6c0.1,0.1,0.1,0.1,0.2,0.1l0.1-0.1
				c0-0.1,0-0.1,0-0.1c-0.1-0.1-0.1-0.3-0.3-0.4c-0.1-0.1-0.1-0.1-0.1-0.2c-0.1-0.1-0.1-0.1-0.1-0.3c-0.1-0.1-0.1-0.3-0.1-0.5
				c0-0.1,0-0.1,0-0.1s0-0.1,0-0.1v-0.1c0,0.1,0.1,0.1,0.1,0.1c0.1,0.1,0.2,0.3,0.4,0.4c0.1,0.1,0.2,0.2,0.4,0.4
				c0.1,0.1,0.1,0.1,0.3,0.1c0.1,0.1,0.1,0.1,0.2,0.1c0.1,0.1,0.4,0.1,0.5,0.2c0.1,0.1,0.4,0.1,0.5,0.2c0.1,0,0.1,0.1,0.3,0.1
				c0.1,0,0.1,0,0.2,0s0.1-0.1,0.1-0.1l0,0v-0.1c0-0.1,0-0.1,0-0.1c0-0.1,0-0.1-0.1-0.1c-0.1-0.1-0.1-0.3-0.3-0.4
				c0-0.1-0.1-0.1-0.1-0.1c-0.1-0.1-0.1-0.1-0.2-0.2c-0.1-0.1-0.2-0.2-0.4-0.3c-0.1-0.1-0.2-0.1-0.3-0.2s-0.2-0.1-0.3-0.1
				c-0.2-0.1-0.4-0.2-0.7-0.3c-0.2-0.1-0.4-0.1-0.6-0.1c0-0.1,0-0.4,0-0.5c0-0.4-0.1-0.7-0.1-1.1c-0.1-0.4-0.2-0.7-0.4-1
				c-0.1-0.4-0.3-0.6-0.5-0.9c0-0.1-0.1-0.1-0.1-0.1c0.3,0.1,0.5,0.3,0.8,0.4c0.1,0.1,0.2,0.1,0.3,0.1s0.1,0.1,0.1,0.1
				c0.1,0.1,0.3,0.2,0.4,0.3s0.3,0.2,0.4,0.3c0.1,0.1,0.4,0.2,0.5,0.4c0.3,0.2,0.5,0.4,0.8,0.6c0.6,0.5,1.2,1,1.8,1.4
				c0.6,0.5,1.3,1,1.9,1.4c0.1,0.1,0.1,0.1,0.1,0.1c0.1,0.1,0.1,0.1,0.1,0.2c0.1,0.1,0.1,0.1,0.1,0.2c0.1,0.1,0.1,0.3,0.2,0.4
				s0.1,0.4,0.2,0.5c0.1,0.1,0.1,0.3,0.1,0.5c0,0.1,0,0.2,0,0.4s-0.1,0.3-0.1,0.4c0,0.1,0,0.1-0.1,0.1c0,0.1-0.1,0.1-0.1,0.1
				c0,0.1-0.1,0.1-0.1,0.1L97.5,48c-0.1,0.1-0.3,0.2-0.4,0.3c-0.1,0.1-0.1,0.1-0.3,0.1c-0.1,0-0.1,0-0.3,0c-0.1,0-0.3-0.1-0.5-0.1
				c-0.1,0-0.2-0.1-0.4-0.1c-0.1,0-0.1-0.1-0.1-0.1c-0.1-0.1-0.2-0.1-0.3-0.3c-0.1-0.1-0.1-0.1-0.1-0.2v-0.1c0-0.1,0-0.1,0-0.1
				s0-0.1,0-0.1l0,0c0.1,0,0.3,0.1,0.4,0.1c0.1,0,0.4-0.1,0.5-0.1c0.1,0,0.1-0.1,0.2-0.1s0.1-0.1,0.2-0.1c0.1-0.1,0.3-0.2,0.4-0.4
				c0.1-0.1,0.1-0.1,0.1-0.3c0-0.1-0.1-0.1-0.1-0.1c-0.1-0.1-0.1-0.1-0.2-0.1c-0.1,0-0.2,0-0.3,0c-0.2,0-0.4,0-0.6,0.1
				c-0.1,0-0.1,0.1-0.3,0.1c-0.1,0-0.1,0.1-0.1,0.1c-0.1,0-0.1,0.1-0.2,0.1c-0.1,0.1-0.1,0.1-0.2,0.3c0,0.1-0.1,0.1-0.1,0.2
				c0,0.1-0.1,0.1-0.1,0.2s0,0.2,0,0.3c0,0.1,0.1,0.3,0.1,0.4c0.1,0.1,0.1,0.2,0.2,0.3s0.1,0.1,0.2,0.1c0.1,0.1,0.1,0.1,0.1,0.1
				c0.1,0,0.1,0.1,0.2,0.1s0.1,0.1,0.2,0.1c0.1,0,0.1,0.1,0.3,0.1c0.1,0,0.2,0.1,0.3,0.1c0.1,0,0.1,0,0.1,0s0.1,0,0.3-0.1
				c0.1,0,0.1,0,0.1-0.1c0.1,0,0.1-0.1,0.1-0.1c0.1-0.1,0.1-0.1,0.2-0.1l0.1-0.1c0,0,0,0,0,0.1c0,0.1,0,0.2-0.1,0.4
				c0,0.1,0,0.2,0,0.4c0,0.2,0,0.4,0.1,0.6c0,0.2,0.1,0.4,0.1,0.6c0.1,0.1,0.1,0.1,0.2,0.1s0.1-0.1,0.1-0.1l0,0c0-0.1,0-0.1,0-0.1
				s-0.1-0.1-0.1-0.2c0-0.1-0.1-0.1-0.1-0.2c0-0.1-0.1-0.3-0.1-0.5s0-0.4,0-0.6c0-0.1,0-0.2,0.1-0.4c0,0.1,0.1,0.2,0.1,0.3
				c0.1,0.1,0.1,0.4,0.2,0.5s0.2,0.3,0.4,0.4c0.1,0.1,0.1,0.1,0.2,0.1c0.1,0.1,0.1,0.1,0.2,0.1c0.1,0.1,0.1,0.1,0.2,0.1
				c0.1,0.1,0.1,0.1,0.3,0.1c0.1,0,0.2,0,0.3-0.1c0,0,0,0,0-0.1c0.1-0.1,0-0.2-0.1-0.4c0-0.1-0.1-0.2-0.1-0.3
				c-0.1-0.1-0.1-0.4-0.2-0.5c0-0.1-0.1-0.1-0.1-0.2c0-0.1-0.1-0.1-0.1-0.1c0,0,0-0.1-0.1-0.1c-0.1-0.1-0.1-0.1-0.1-0.2
				c-0.1-0.1-0.1-0.1-0.2-0.2c-0.1-0.1-0.2-0.3-0.4-0.4c-0.1-0.1-0.3-0.2-0.4-0.3c0-0.1,0-0.1,0-0.1c0-0.1,0-0.2,0-0.4
				c0-0.2-0.1-0.4-0.1-0.5c-0.1-0.1-0.1-0.3-0.2-0.5c-0.1-0.1-0.1-0.3-0.2-0.5l0,0c0.3,0.2,0.6,0.4,0.8,0.6c0.3,0.2,0.6,0.4,0.9,0.6
				c0.3,0.2,0.6,0.4,0.9,0.6c0.1,0.1,0.4,0.1,0.5,0.3c0.1,0.1,0.4,0.1,0.5,0.3c0.4,0.1,0.6,0.3,1,0.4c0,0.1-0.1,0.1-0.1,0.2
				c0,0.1,0,0.4,0,0.5s0.1,0.3,0.1,0.5c0,0.1,0.1,0.4,0.1,0.5c0,0.1,0.1,0.1,0.1,0.1l0.1-0.1v-0.1v-0.1v-0.1c0-0.1-0.1-0.1-0.1-0.1
				c-0.1-0.2-0.1-0.5-0.1-0.7c0-0.1,0-0.1,0-0.2v-0.1c0.1,0.1,0.1,0.1,0.1,0.1c0.1,0.1,0.2,0.3,0.4,0.4c0.1,0.1,0.2,0.2,0.4,0.4
				c0.1,0.1,0.1,0.1,0.3,0.1c0.1,0.1,0.1,0.1,0.2,0.1c0.4,0.1,0.7,0.3,1.1,0.4c0.1,0,0.1,0,0.2,0c0.2,0,0.4,0,0.6-0.1
				c0.1,0,0.1-0.1,0.1-0.1l0,0c0-0.1,0-0.1,0-0.1l0,0c0,0,0-0.1-0.1-0.1l-0.1-0.1c-0.1-0.1-0.1-0.1-0.1-0.1
				c-0.2-0.2-0.4-0.4-0.6-0.6c-0.1-0.1-0.2-0.2-0.4-0.3s-0.2-0.1-0.4-0.2c-0.1,0-0.1-0.1-0.2-0.1s-0.1-0.1-0.2-0.1
				c-0.1-0.1-0.3-0.1-0.4-0.1c-0.2-0.1-0.4-0.1-0.6-0.1l0,0c0,0,0,0-0.1,0c-0.4-0.1-0.7-0.3-1.1-0.5c-0.1-0.1-0.3-0.1-0.4-0.2
				c0.1,0,0.1,0,0.1-0.1c0.2-0.1,0.4-0.2,0.6-0.4c0.1-0.1,0.1-0.1,0.3-0.3c0.1-0.1,0.1-0.2,0.1-0.3c0.1-0.1,0.1-0.2,0.1-0.3
				s0.1-0.2,0.1-0.3s0-0.1,0-0.1c0.2,0,0.4,0,0.6-0.1c0.1,0,0.2-0.1,0.4-0.1c0.1,0,0.1-0.1,0.2-0.1c0.1-0.1,0.2-0.1,0.3-0.1
				c0.1-0.1,0.2-0.1,0.3-0.2c0.1-0.1,0.1-0.1,0.3-0.3c0.1-0.1,0.1-0.1,0.1-0.2c0.1-0.1,0.1-0.2,0.1-0.3l0,0l0.1-0.1
				c0-0.1,0-0.1,0-0.1v-0.1l-0.1-0.1c-0.1-0.1-0.1-0.1-0.2-0.1c-0.1,0-0.1,0-0.2,0c-0.1,0-0.1,0-0.1,0c-0.3,0-0.6,0.1-0.9,0.2
				c-0.1,0-0.1,0.1-0.1,0.1c-0.1,0.1-0.2,0.1-0.3,0.2c-0.1,0.1-0.1,0.1-0.1,0.1c0-0.1,0-0.1,0-0.2c0-0.1,0-0.3,0-0.4
				c0-0.1,0-0.1,0-0.2v-0.1v-0.1l0,0c0-0.1-0.1-0.3-0.1-0.4c-0.1-0.1-0.1-0.3-0.1-0.4c0-0.1-0.1-0.1-0.1-0.1c0-0.1-0.1-0.1-0.1-0.2
				h-0.1h-0.1c0,0,0,0-0.1,0.1v0.1c0,0.1,0.1,0.1,0.1,0.1c0.1,0.1,0.1,0.3,0.1,0.4c0.1,0.1,0.1,0.3,0.1,0.5l0,0v0.1c0,0,0,0,0-0.1
				c0,0,0,0,0,0.1c0,0.1,0,0.2,0.1,0.4c0,0.1,0,0.3,0,0.4l0,0c0,0.1,0,0.2,0,0.3c0-0.1,0-0.1-0.1-0.2c-0.1-0.1-0.1-0.3-0.2-0.4
				c-0.1-0.1-0.2-0.3-0.4-0.4c-0.1-0.1-0.3-0.2-0.4-0.3c-0.1-0.1-0.3-0.1-0.5-0.2c-0.1,0-0.1,0-0.2-0.1c-0.1,0-0.2,0-0.3,0
				c-0.2,0-0.4,0.1-0.6,0.2c-0.3,0.1-0.6,0.4-0.6,0.7c-0.1,0.2-0.1,0.4-0.1,0.6c0,0.1,0,0.1,0,0.2s0.1,0.1,0.1,0.1l0.1,0.1
				c0.1,0.1,0.1,0.1,0.1,0.2c0.1,0.1,0.1,0.1,0.1,0.1c0.1,0.1,0.1,0.1,0.2,0.1c0.1,0.1,0.3,0.2,0.4,0.2c0.1,0,0.2,0,0.3-0.1
				c0-0.1,0.1-0.1,0.1-0.1l0,0v-0.1c0.1-0.1,0.1-0.1,0.1-0.2c0.1-0.1,0.1-0.4,0.1-0.5c0-0.2,0-0.4-0.1-0.6c-0.1-0.1-0.1-0.4-0.2-0.5
				c0-0.1-0.1-0.1-0.1-0.2c0-0.1-0.1-0.1-0.1-0.1c0.1,0,0.1,0,0.1,0s0.1,0,0.2,0s0.1,0,0.1,0.1c0.1,0,0.2,0.1,0.3,0.1
				c0.1,0.1,0.1,0.1,0.3,0.1c0.1,0.1,0.1,0.1,0.2,0.1c0.1,0.1,0.1,0.1,0.2,0.2c0.1,0.1,0.1,0.2,0.2,0.3s0.1,0.1,0.1,0.3
				s0.1,0.2,0.1,0.4s0,0.4,0,0.5s-0.1,0.3-0.1,0.4c-0.1,0.1-0.1,0.2-0.1,0.4c-0.1,0.1-0.1,0.2-0.3,0.3c-0.1,0.1-0.2,0.1-0.4,0.2
				c-0.1,0-0.1,0.1-0.2,0.1s-0.2,0-0.3,0c-0.1,0-0.3-0.1-0.4-0.1c-0.2-0.1-0.5-0.3-0.7-0.4c-0.3-0.2-0.6-0.4-0.9-0.6
				c-0.1-0.1-0.2-0.1-0.4-0.2l0.1,0.1c-1.2-0.9-2.3-1.7-3.5-2.6c-0.6-0.4-1.1-0.9-1.7-1.3c-0.1-0.1-0.4-0.3-0.5-0.4
				c0.1,0,0.1,0,0.2,0.1c0.1,0,0.4,0.1,0.5,0.1c0.4,0,0.7,0,1.1-0.1c0.1,0,0.2-0.1,0.3-0.1c0.2-0.1,0.4-0.1,0.6-0.2
				c0.2-0.1,0.4-0.2,0.5-0.4c0.1-0.1,0.2-0.2,0.3-0.3c0,0,0,0.1,0.1,0.1l0.1,0.1c0.1,0.1,0.1,0.1,0.3,0.3c0.2,0.2,0.5,0.4,0.8,0.5
				c0.1,0.1,0.3,0.1,0.4,0.1s0.3,0,0.4,0c0.1,0,0.3,0,0.4-0.1c0.1,0,0.1,0,0.2,0s0.1,0,0.1,0s0.1,0,0.1-0.1c0,0,0,0,0-0.1l0,0
				c0,0,0-0.1,0-0.1c0,0,0,0,0-0.1h-0.1l-0.1-0.1c-0.1-0.1-0.1-0.1-0.2-0.1c-0.1-0.1-0.3-0.2-0.4-0.3c-0.2-0.1-0.5-0.3-0.7-0.4
				c-0.2-0.1-0.4-0.1-0.6-0.1c-0.1,0-0.2,0-0.4,0v-0.1c0-0.1,0-0.2,0.1-0.3c0,0,0,0,0,0.1c0-0.1,0.1-0.1,0.1-0.2l0,0l0,0l0,0l0,0
				v-0.1l0,0l0,0l0,0l0,0c0.1-0.1,0.1-0.2,0.1-0.4c0.1-0.1,0.1-0.2,0.2-0.4l0,0l0,0v-0.1l0,0c0.1-0.1,0.2-0.3,0.4-0.4
				c0.1-0.1,0.2-0.1,0.3-0.2l0.1-0.1c0-0.1,0-0.1,0-0.2c-0.1-0.1-0.2-0.1-0.3-0.1c-0.1,0.1-0.3,0.2-0.4,0.4
				c-0.1,0.1-0.1,0.1-0.1,0.1s-0.1,0.1-0.1,0.2c-0.1,0.1-0.1,0.2-0.2,0.4c0-0.1-0.1-0.2-0.1-0.3c-0.1-0.1-0.2-0.2-0.3-0.4
				c-0.1-0.1-0.1-0.1-0.3-0.1c-0.1,0-0.1-0.1-0.1-0.1c-0.1-0.1-0.2-0.1-0.4-0.1c-0.1,0-0.2-0.1-0.4-0.1c-0.1,0-0.2-0.1-0.4-0.1
				c-0.1,0-0.4,0.1-0.5,0.1c-0.1,0.1-0.1,0.1-0.3,0.1c-0.1,0.1-0.2,0.1-0.3,0.3c0,0.1-0.1,0.1-0.1,0.1s0,0.1-0.1,0.1
				c0,0.1-0.1,0.2,0,0.4c0,0.1,0,0.2,0.1,0.3c0,0.1,0.1,0.2,0.1,0.3c0.1,0.1,0.2,0.2,0.3,0.4c0.1,0.1,0.1,0.1,0.2,0.1
				c0.1,0.1,0.1,0.1,0.2,0.1c0.1,0.1,0.1,0.1,0.1,0.1l0,0c0.1,0.1,0.1,0.1,0.3,0.1c0,0,0.1,0,0.1,0.1c0.1,0,0.1,0.1,0.2,0.1h0.1h0.1
				c0,0,0.1,0,0.1-0.1c0,0,0,0,0-0.1c0,0,0,0,0-0.1s0-0.1,0-0.1v-0.1c0-0.1,0-0.1-0.1-0.3c0-0.1-0.1-0.3-0.1-0.4
				c0-0.1-0.1-0.1-0.1-0.2c-0.1-0.1-0.1-0.1-0.1-0.2c-0.1-0.1-0.1-0.2-0.3-0.4c-0.1-0.1-0.1-0.1-0.1-0.1s-0.1-0.1-0.1-0.1l-0.1-0.1
				l0,0l0,0c0.1-0.1,0.2-0.1,0.3-0.1c0.1,0,0.1,0,0.1,0s0.2,0,0.3,0.1c0.1,0,0.3,0.1,0.4,0.1c0.1,0,0.1,0.1,0.2,0.1
				c0,0,0.1,0,0.1,0.1c0.1,0.1,0.2,0.1,0.3,0.2l0.1,0.1c0.1,0.1,0.1,0.2,0.1,0.4c0,0.1,0,0.3,0,0.4s-0.1,0.3-0.1,0.4
				c-0.1,0.1-0.1,0.2-0.1,0.3c0,0.1-0.1,0.1-0.1,0.1c-0.1,0.1-0.1,0.2-0.3,0.3c-0.1,0.1-0.3,0.2-0.4,0.3c-0.1,0.1-0.3,0.1-0.4,0.1
				c-0.1,0-0.1,0-0.1,0.1c-0.1,0-0.1,0-0.2,0.1c-0.1,0-0.2,0-0.3,0c-0.1,0-0.4,0-0.5,0l0,0c-0.1,0-0.3,0-0.4-0.1
				c-0.1,0-0.3-0.1-0.5-0.1c-0.1-0.1-0.3-0.1-0.4-0.2c-0.1-0.1-0.1-0.1-0.2-0.1c-0.1,0-0.1-0.1-0.1-0.1c-0.1-0.1-0.2-0.1-0.3-0.2
				c-0.3-0.2-0.6-0.4-0.9-0.5c-0.3-0.1-0.6-0.4-1-0.5c-0.6-0.4-1.3-0.6-1.9-1c-0.6-0.4-1.3-0.6-2-0.9c-0.2-0.1-0.4-0.1-0.6-0.3
				c0.1,0,0.2-0.1,0.3-0.1c0.1-0.1,0.3-0.1,0.5-0.3c0.1-0.1,0.3-0.2,0.4-0.4s0.2-0.2,0.4-0.4c0.1-0.1,0.1-0.1,0.1-0.2
				c0.1-0.1,0.1-0.1,0.1-0.1c0.1,0,0.1,0,0.1-0.1l0,0c0.1,0,0.2,0,0.4,0c0.1,0,0.2,0,0.4-0.1c0.2-0.1,0.4-0.1,0.6-0.2
				s0.5-0.2,0.7-0.4s0.4-0.4,0.5-0.6l0,0c0-0.1,0-0.1,0.1-0.1c0-0.1,0-0.1,0-0.2s-0.1-0.1-0.1-0.1c-0.1,0-0.1-0.1-0.1-0.1
				c-0.2,0-0.4,0-0.6,0c-0.2,0.1-0.4,0.1-0.6,0.2c-0.2,0.1-0.4,0.2-0.6,0.4c-0.1,0.1-0.2,0.2-0.4,0.3c0-0.2,0-0.4,0-0.6
				c0-0.1,0.1-0.2,0.1-0.3c0-0.1,0.1-0.2,0.1-0.3s0.1-0.2,0.1-0.3c0.1-0.1,0.1-0.2,0.1-0.3s0.1-0.2,0.1-0.3s0.1-0.1,0.2-0.2
				c0.1-0.1,0.1-0.1,0.1-0.1c0.1-0.1,0.1-0.1,0.1-0.2c-0.1-0.1-0.1-0.1-0.2-0.1c-0.1,0.1-0.2,0.2-0.4,0.3c-0.1,0.1-0.1,0.2-0.2,0.4
				c-0.1,0.1-0.1,0.2-0.2,0.4c-0.1,0.1-0.1,0.2-0.1,0.4c-0.1-0.1-0.1-0.3-0.2-0.4c-0.1-0.1-0.2-0.3-0.4-0.4
				c-0.1-0.1-0.3-0.2-0.4-0.3s-0.4-0.1-0.5-0.2c-0.1,0-0.1-0.1-0.2-0.1c-0.1,0-0.2,0-0.3,0c-0.1,0-0.4,0-0.5,0c-0.1,0-0.1,0-0.2,0.1
				c-0.1,0-0.2,0.1-0.3,0.1c-0.1,0.1-0.2,0.1-0.3,0.3c-0.1,0.1-0.1,0.1-0.1,0.1c-0.1,0.1-0.2,0.4-0.2,0.6c0,0.1,0,0.2,0,0.4
				c0,0.2,0.1,0.5,0.3,0.6c0.1,0.1,0.2,0.3,0.4,0.4c0.1,0.1,0.3,0.2,0.4,0.3c0.1,0.1,0.2,0.1,0.3,0.1s0.1,0.1,0.3,0.1
				c0.1,0,0.1,0,0.2,0.1c0.1,0,0.1,0,0.1,0c0.1,0,0.1-0.1,0.1-0.1s0.1-0.1,0.1-0.2s0-0.2,0-0.3c0-0.1,0-0.4,0-0.5
				c0-0.1-0.1-0.2-0.1-0.3s-0.1-0.1-0.1-0.2c-0.1-0.1-0.1-0.4-0.3-0.5c-0.1-0.1-0.2-0.3-0.4-0.4s-0.2-0.1-0.4-0.2
				c0.1,0,0.1-0.1,0.2-0.1c0.2,0,0.4-0.1,0.6-0.1c0.1,0,0.1,0,0.1,0c0.1,0,0.1,0,0.2,0.1c0.1,0,0.1,0.1,0.3,0.1
				c0.1,0.1,0.2,0.1,0.3,0.1c0,0,0,0-0.1,0c0.1,0.1,0.1,0.1,0.2,0.1c0.1,0.1,0.1,0.1,0.2,0.2c0.1,0.1,0.1,0.2,0.2,0.3
				c0.1,0.1,0.1,0.4,0.1,0.5s0,0.2,0.1,0.4v0.1l0,0c0,0.1,0,0.1-0.1,0.2c0,0.1,0,0.1,0,0.2c0,0.1,0,0.1,0,0.1c0,0.1-0.1,0.2-0.1,0.4
				c-0.1,0.1-0.1,0.3-0.2,0.5c-0.1,0.1-0.1,0.2-0.2,0.3c-0.1,0.1-0.1,0.2-0.3,0.3c-0.1,0.1-0.1,0.1-0.3,0.2
				c-0.1,0.1-0.2,0.1-0.3,0.1c-0.1,0.1-0.1,0.1-0.2,0.1c-0.1,0-0.1,0.1-0.3,0.1c-0.1,0-0.1,0-0.2,0c-0.2,0-0.4-0.1-0.6-0.1
				c-0.1-0.1-0.3-0.1-0.4-0.1c-0.7-0.2-1.5-0.4-2.2-0.5c-0.4-0.1-0.6-0.1-1-0.2c-0.4-0.1-0.8-0.1-1.1-0.1c-0.7-0.1-1.5-0.2-2.2-0.4
				c-0.7-0.1-1.3-0.3-2.1-0.4c-0.3-0.1-0.6-0.1-0.9-0.1s-0.6-0.1-0.9-0.1c-0.1,0-0.1,0-0.2,0.1s-0.1,0.1-0.1,0.2
				C72.4,34.3,72.4,34.3,72.5,34.4z M92.7,44.2L92.7,44.2L92.7,44.2L92.7,44.2z M95.1,46.5L95.1,46.5L95.1,46.5L95.1,46.5z
				 M102.1,42.6L102.1,42.6L102.1,42.6L102.1,42.6z M96.5,39.3L96.5,39.3L96.5,39.3L96.5,39.3z M87,34.6L87,34.6L87,34.6L87,34.6
				L87,34.6z M84.7,34L84.7,34C84.7,34.1,84.7,34.1,84.7,34L84.7,34z"/>
			<path class="st1" d="M80,41.1C80,41.1,80,41.1,80,41.1C80,41.1,80,41.1,80,41.1L80,41.1z"/>
			<path class="st1" d="M80,41.1C80,41.1,80,41.2,80,41.1C80,41.2,80,41.2,80,41.1L80,41.1z"/>
			<path class="st1" d="M103.2,49.9c0-0.1-0.1-0.1-0.1-0.1s-0.1-0.1-0.1-0.1h-0.1l0,0c-0.1,0-0.1-0.1-0.1-0.1s-0.1,0-0.1,0
				s-0.1,0-0.1,0.1c-0.1,0.1-0.1,0.1-0.2,0.1c-0.1,0.1-0.1,0.1-0.1,0.2s0,0.1,0,0.2c0,0.1,0.1,0.1,0.1,0.2l0.1,0.1
				c0.1,0.1,0.1,0.1,0.2,0.1c0.1,0,0.1,0,0.3,0c0.1,0,0.1-0.1,0.2-0.1c0.1-0.1,0.1-0.1,0.1-0.2l0,0c0-0.1,0.1-0.1,0-0.2
				C103.3,50,103.3,49.9,103.2,49.9z"/>
			<path class="st1" d="M100.6,41.3L100.6,41.3c0.1,0.1,0.2,0.1,0.3,0.1c0.1,0,0.1,0,0.1,0s0.1,0,0.1,0s0.1,0,0.2-0.1
				c0.1,0,0.1-0.1,0.2-0.1l0.1-0.1l0.1-0.1V41c0-0.1,0-0.1,0-0.1s0-0.1,0-0.1v-0.1v-0.1l-0.1-0.1c-0.1-0.1-0.1-0.1-0.2-0.1
				c-0.1,0-0.1-0.1-0.1-0.1s-0.1-0.1-0.2-0.1c-0.1,0-0.4,0.1-0.4,0.2c-0.1,0.1-0.1,0.1-0.1,0.1c0,0,0,0,0,0.1v0.1c0,0.1,0,0.1,0,0.1
				s0,0.1,0.1,0.1C100.5,41.1,100.5,41.2,100.6,41.3z M101,40.8L101,40.8C101.1,40.8,101.1,40.8,101,40.8L101,40.8L101,40.8z"/>
			<path class="st1" d="M98.9,50.8L98.9,50.8c0-0.1-0.1-0.1-0.1-0.1c0-0.1-0.1-0.1-0.1-0.1c-0.1-0.1-0.1-0.1-0.3-0.2l-0.1-0.1
				c0,0-0.1,0-0.1-0.1c-0.1,0-0.1,0-0.1,0c-0.2,0-0.4,0.2-0.4,0.4c-0.1,0.1-0.1,0.2,0,0.3c0,0.1,0.1,0.2,0.1,0.3s0.1,0.1,0.1,0.2
				c0,0.1,0.1,0.1,0.1,0.1c0,0,0.1,0.1,0.1,0.1s0.1,0.1,0.1,0.1c0.1,0,0.3-0.1,0.4-0.1c0.1-0.1,0.1-0.1,0.1-0.2
				c0-0.1,0.1-0.1,0.1-0.2C98.9,50.9,98.9,50.9,98.9,50.8C98.9,50.9,98.9,50.9,98.9,50.8z"/>
			<path class="st1" d="M88.7,45.2L88.7,45.2L88.7,45.2L88.7,45.2z"/>
			<path class="st1" d="M86.8,45.5c-0.1-0.1-0.1-0.1-0.2-0.2c-0.1,0-0.1-0.1-0.1-0.1s-0.1-0.1-0.1-0.1c-0.1,0-0.1,0-0.2,0
				s-0.1,0-0.1,0.1c-0.1,0-0.1,0.1-0.1,0.1c-0.1,0.1-0.1,0.1-0.1,0.2c-0.1,0.1-0.1,0.1-0.1,0.3c0,0.1,0,0.2,0.1,0.3
				c0.1,0.1,0.2,0.3,0.4,0.4c0.1,0,0.1,0.1,0.2,0.1s0.2,0,0.3-0.1c0.1,0,0.1-0.1,0.2-0.1c0,0,0,0,0.1-0.1l0.1-0.1l0,0
				c0-0.1,0-0.1,0-0.1c0-0.1,0-0.1,0-0.2C86.8,45.6,86.8,45.5,86.8,45.5z"/>
			<path class="st1" d="M96.7,37.7L96.7,37.7L96.7,37.7L96.7,37.7z"/>
			<path class="st1" d="M96.4,38.5L96.4,38.5L96.4,38.5z"/>
			<path class="st1" d="M96.4,38.4C96.4,38.4,96.5,38.4,96.4,38.4C96.5,38.4,96.5,38.4,96.4,38.4L96.4,38.4z"/>
			<path class="st1" d="M97.6,36.7L97.6,36.7C97.7,36.8,97.7,36.8,97.6,36.7c0.1,0.1,0.1,0.1,0.2,0.2c0.1,0,0.1,0.1,0.2,0.1
				s0.1,0,0.2,0s0.1-0.1,0.2-0.1s0.1-0.1,0.1-0.1c0.1-0.1,0.1-0.3,0.1-0.4s-0.1-0.2-0.1-0.3s-0.1-0.1-0.2-0.1
				c-0.1-0.1-0.1-0.1-0.2-0.1s-0.1,0-0.1,0s-0.1,0-0.2,0.1c-0.1,0-0.1,0.1-0.2,0.1s-0.1,0.1-0.1,0.2c0,0.1,0,0.1,0,0.2
				C97.5,36.5,97.5,36.6,97.6,36.7z"/>
			<path class="st1" d="M88.3,31.4c0.1,0.1,0.3,0.2,0.5,0.3c0.2,0,0.4-0.1,0.6-0.2c0.1-0.1,0.1-0.1,0.1-0.2c0.1-0.1,0.1-0.3,0-0.4
				c0-0.1-0.1-0.1-0.1-0.2s-0.1-0.1-0.2-0.2c-0.2-0.1-0.4-0.1-0.6-0.1c-0.1,0-0.1,0-0.2,0.1c-0.1,0.1-0.1,0.1-0.1,0.2
				c-0.1,0.1-0.1,0.1-0.1,0.3c0,0.1,0,0.1,0.1,0.2C88.2,31.2,88.3,31.3,88.3,31.4z"/>
			<path class="st1" d="M81.8,43.7L81.8,43.7c-0.1-0.1-0.1-0.1-0.2-0.2l0,0l-0.1-0.1c-0.1,0-0.1-0.1-0.1-0.1h-0.1
				c0,0-0.1-0.1-0.1-0.1c-0.1,0-0.1,0-0.1,0s-0.1,0-0.1,0.1c-0.1,0-0.1,0.1-0.2,0.1c-0.1,0.1-0.1,0.1-0.1,0.2s0,0.1,0,0.1
				s0,0.1,0,0.1c0.1,0.1,0.1,0.3,0.3,0.4c0.1,0.1,0.1,0.1,0.2,0.1c0.1,0,0.2,0.1,0.3,0.1c0.1,0,0.1,0,0.2,0c0.1,0,0.1-0.1,0.2-0.1
				c0.1-0.1,0.1-0.1,0.1-0.1c0,0,0-0.1,0.1-0.1c0-0.1,0-0.1,0-0.1v-0.1V44C81.8,43.8,81.8,43.8,81.8,43.7z"/>
			<path class="st1" d="M85.1,39c0-0.1-0.1-0.1-0.1-0.1c-0.1-0.1-0.1-0.1-0.1-0.1c-0.1,0-0.1-0.1-0.1-0.1s-0.1,0-0.1,0
				c-0.1,0-0.1,0.1-0.2,0.1c-0.1,0-0.1,0.1-0.1,0.1c0,0,0,0,0,0.1l0,0c-0.1,0-0.1,0.1-0.1,0.1s-0.1,0.1-0.1,0.1s0,0.1,0,0.1
				s0.1,0.2,0.1,0.3c0.1,0.1,0.1,0.1,0.2,0.2c0.1,0.1,0.1,0.1,0.2,0.1c0.1,0,0.1,0,0.2,0s0.1,0,0.1-0.1c0.1,0,0.1-0.1,0.1-0.1
				c0.1-0.1,0.1-0.1,0.1-0.2c0,0,0,0,0-0.1v-0.1c0-0.1,0-0.1,0-0.1v-0.1C85.1,39,85.1,39,85.1,39z M84.6,39.2L84.6,39.2L84.6,39.2
				L84.6,39.2z M84.6,39.2L84.6,39.2L84.6,39.2L84.6,39.2L84.6,39.2z"/>
			<path class="st1" d="M92.5,46.1c-0.1-0.1-0.1-0.1-0.1-0.2l-0.1-0.1c0,0-0.1-0.1-0.1-0.1s-0.1,0-0.1-0.1h-0.1l0,0h-0.1h-0.1
				c-0.1,0-0.1,0-0.1,0c-0.1,0-0.1,0-0.1,0.1l-0.1,0.1c0,0.1-0.1,0.1-0.1,0.1c0,0.1,0,0.1,0,0.1c0,0.1,0,0.2,0,0.3
				c0.1,0.1,0.1,0.3,0.3,0.4c0.1,0.1,0.1,0.1,0.1,0.1c0.1,0.1,0.1,0.1,0.2,0.1c0.1,0.1,0.4,0,0.5-0.1c0.1-0.1,0.1-0.1,0.1-0.2l0,0
				c0.1-0.1,0.1-0.2,0.1-0.3s0-0.1,0-0.1C92.6,46.2,92.6,46.2,92.5,46.1z"/>
		</g>
		<g>
			<path class="st1" d="M56.7,46L56.7,46C56.7,46,56.7,46,56.7,46L56.7,46z"/>
			<path class="st1" d="M63.5,45.2L63.5,45.2L63.5,45.2L63.5,45.2z"/>
			<path class="st1" d="M61.5,41.8L61.5,41.8L61.5,41.8L61.5,41.8z"/>
			<path class="st1" d="M70.3,39.3L70.3,39.3L70.3,39.3L70.3,39.3z"/>
			<path class="st1" d="M79.2,34.2c0-0.1-0.1-0.1-0.1-0.2c-0.1-0.1-0.1-0.1-0.2-0.1c-0.3,0-0.6,0.1-0.9,0.1
				c-0.3,0.1-0.6,0.1-0.9,0.1c-0.7,0.1-1.3,0.3-2.1,0.4c-0.7,0.1-1.5,0.2-2.2,0.4c-0.4,0.1-0.8,0.1-1.1,0.1s-0.6,0.1-1,0.2
				c-0.7,0.1-1.5,0.4-2.2,0.5c-0.1,0.1-0.3,0.1-0.4,0.1c-0.2,0.1-0.4,0.1-0.6,0.1c-0.1,0-0.1,0-0.2,0s-0.1-0.1-0.3-0.1
				c-0.1,0-0.1-0.1-0.2-0.1c-0.1-0.1-0.2-0.1-0.3-0.1c-0.1-0.1-0.2-0.1-0.3-0.2s-0.1-0.1-0.3-0.3c-0.1-0.1-0.1-0.2-0.2-0.3
				c-0.1-0.1-0.1-0.3-0.2-0.5c0-0.1-0.1-0.2-0.1-0.4c0-0.1,0-0.1,0-0.1s0-0.1,0-0.2c0-0.1,0-0.1-0.1-0.2l0,0v-0.1
				c0-0.1,0-0.2,0.1-0.4c0.1-0.1,0.1-0.4,0.1-0.5s0.1-0.2,0.2-0.3s0.1-0.1,0.2-0.2c0.1-0.1,0.1-0.1,0.2-0.1c0,0,0,0-0.1,0
				c0.1-0.1,0.1-0.1,0.3-0.1c0.1-0.1,0.1-0.1,0.3-0.1c0.1,0,0.1,0,0.2-0.1c0.1,0,0.1,0,0.1,0c0.2,0,0.4,0,0.6,0.1
				c0.1,0,0.1,0.1,0.2,0.1c-0.1,0.1-0.2,0.1-0.4,0.2c-0.1,0.1-0.3,0.2-0.4,0.4c-0.1,0.1-0.2,0.3-0.3,0.5c0,0.1-0.1,0.1-0.1,0.2
				s-0.1,0.2-0.1,0.3c0,0.1-0.1,0.4,0,0.5c0,0.1,0,0.2,0,0.3s0,0.1,0.1,0.2c0.1,0.1,0.1,0.1,0.1,0.1c0.1,0,0.1,0,0.1,0
				c0.1,0,0.1,0,0.2-0.1c0.1,0,0.1-0.1,0.3-0.1c0.1-0.1,0.2-0.1,0.3-0.1c0.1-0.1,0.3-0.2,0.4-0.3c0.1-0.1,0.3-0.3,0.4-0.4
				c0.1-0.2,0.2-0.4,0.3-0.6c0-0.1,0-0.3,0-0.4c-0.1-0.2-0.1-0.4-0.2-0.6c-0.1-0.1-0.1-0.1-0.1-0.1c-0.1-0.1-0.2-0.2-0.3-0.3
				c-0.1-0.1-0.2-0.1-0.3-0.1c-0.1,0-0.1-0.1-0.2-0.1c-0.1,0-0.4,0-0.5,0c-0.1,0-0.2,0-0.3,0s-0.1,0-0.2,0.1
				c-0.2,0.1-0.4,0.1-0.5,0.2s-0.3,0.2-0.4,0.3c-0.1,0.1-0.3,0.2-0.4,0.4c-0.1,0.1-0.1,0.2-0.2,0.4c-0.1-0.1-0.1-0.2-0.1-0.4
				s-0.1-0.2-0.2-0.4s-0.1-0.2-0.2-0.4c-0.1-0.1-0.2-0.2-0.4-0.3c-0.1-0.1-0.1,0-0.2,0.1c-0.1,0.1,0,0.1,0.1,0.2
				c0.1,0.1,0.1,0.1,0.1,0.1c0.1,0.1,0.1,0.1,0.2,0.2s0.1,0.2,0.1,0.3c0.1,0.1,0.1,0.2,0.1,0.3s0.1,0.2,0.1,0.3
				c0,0.1,0.1,0.2,0.1,0.3s0.1,0.1,0.1,0.3c0,0.2,0,0.4,0,0.6c-0.1-0.1-0.2-0.2-0.4-0.3c-0.2-0.1-0.4-0.2-0.6-0.4
				c-0.2-0.1-0.4-0.1-0.6-0.2c-0.2,0-0.4,0-0.6,0c-0.1,0-0.1,0-0.1,0.1c-0.1,0-0.1,0.1-0.1,0.1c0,0.1,0,0.1,0,0.2s0,0.1,0.1,0.1l0,0
				c0.1,0.2,0.3,0.4,0.5,0.6c0.2,0.1,0.4,0.3,0.7,0.4c0.2,0.1,0.4,0.1,0.6,0.2c0.1,0,0.2,0.1,0.4,0.1s0.2,0,0.4,0l0,0
				c0.1,0,0.1,0.1,0.1,0.1c0,0.1,0.1,0.1,0.1,0.1c0.1,0.1,0.1,0.1,0.1,0.2c0.1,0.1,0.2,0.3,0.4,0.4c0.1,0.1,0.3,0.3,0.4,0.4
				s0.3,0.2,0.5,0.3c0.1,0.1,0.2,0.1,0.3,0.1c-0.2,0.1-0.4,0.1-0.6,0.3c-0.7,0.3-1.3,0.6-2,0.9c-0.6,0.3-1.3,0.6-1.9,1
				c-0.4,0.1-0.6,0.4-1,0.5c-0.3,0.1-0.6,0.4-0.9,0.5c-0.1,0.1-0.2,0.1-0.3,0.2c-0.1,0-0.1,0.1-0.1,0.1c-0.1,0.1-0.1,0.1-0.2,0.1
				c-0.1,0.1-0.3,0.1-0.4,0.2c-0.1,0.1-0.3,0.1-0.5,0.1c-0.1,0-0.3,0.1-0.4,0.1l0,0c-0.1,0-0.4,0-0.5,0c-0.1,0-0.2,0-0.3,0
				s-0.1,0-0.2-0.1c-0.1,0-0.1,0-0.1-0.1c-0.1-0.1-0.3-0.1-0.4-0.1c-0.1-0.1-0.3-0.2-0.4-0.3c-0.1-0.1-0.2-0.2-0.3-0.3
				c0-0.1-0.1-0.1-0.1-0.1c-0.1-0.1-0.1-0.2-0.1-0.3c-0.4-0.3-0.4-0.4-0.4-0.6s0-0.3,0-0.4s0.1-0.2,0.1-0.4l0.1-0.1
				c0.1-0.1,0.2-0.1,0.3-0.2c0,0,0.1,0,0.1-0.1c0.1-0.1,0.1-0.1,0.2-0.1c0.1-0.1,0.2-0.1,0.4-0.1c0.1,0,0.1,0,0.3-0.1
				c0.1,0,0.1,0,0.1,0s0.2,0.1,0.3,0.1l0,0l0,0c0,0,0,0.1-0.1,0.1c-0.1,0.1-0.1,0.1-0.1,0.1c-0.1,0.1-0.1,0.1-0.1,0.1
				c-0.1,0.1-0.2,0.2-0.3,0.4C57,38,57,38.1,56.9,38.2c0,0.1-0.1,0.1-0.1,0.2c-0.1,0.1-0.1,0.3-0.1,0.4c0,0.1-0.1,0.1-0.1,0.3v0.1
				c0,0.1,0,0.1,0,0.1v0.1c0,0,0,0,0,0.1l0.1,0.1h0.1h0.1c0.1,0,0.1-0.1,0.2-0.1c0,0,0.1,0,0.1-0.1c0.1,0,0.2-0.1,0.3-0.1l0,0
				c0.1,0,0.1-0.1,0.1-0.1c0.1-0.1,0.1-0.1,0.2-0.1c0.1-0.1,0.1-0.1,0.2-0.1c0.1-0.1,0.2-0.2,0.3-0.4c0.1-0.1,0.1-0.2,0.1-0.3
				s0.1-0.2,0.1-0.3c0-0.1,0-0.2,0-0.4c0-0.1,0-0.1-0.1-0.1c0-0.1-0.1-0.1-0.1-0.1c-0.1-0.1-0.1-0.2-0.3-0.3
				c-0.1-0.1-0.1-0.1-0.3-0.1s-0.4-0.1-0.5-0.1s-0.2,0-0.4,0.1c-0.1,0-0.2,0.1-0.4,0.1s-0.2,0.1-0.4,0.1c-0.1,0-0.1,0.1-0.1,0.1
				c-0.1,0.1-0.1,0.1-0.3,0.1c-0.1,0.1-0.2,0.2-0.3,0.4c-0.1,0.1-0.1,0.2-0.1,0.3c-0.1-0.1-0.1-0.2-0.2-0.4
				c-0.1-0.1-0.1-0.1-0.1-0.2s-0.1-0.1-0.1-0.1c-0.1-0.1-0.3-0.2-0.4-0.4c-0.1-0.1-0.2-0.1-0.3,0.1c-0.1,0.1-0.1,0.1,0,0.2l0.1,0.1
				c0.1,0.1,0.2,0.1,0.3,0.2c0.1,0.1,0.2,0.2,0.4,0.4l0,0v0.1l0,0l0,0c0.1,0.1,0.1,0.2,0.2,0.4c0.1,0.1,0.1,0.2,0.1,0.4l0,0l0,0l0,0
				l0,0v0.1l0,0l0,0l0,0l0,0c0,0.1,0.1,0.1,0.1,0.2c0,0,0,0,0-0.1c0,0.1,0.1,0.2,0.1,0.3V39c-0.1,0-0.2,0-0.4,0
				c-0.2,0-0.4,0.1-0.6,0.1c-0.3,0.1-0.5,0.3-0.7,0.4c-0.1,0.1-0.3,0.2-0.4,0.3c-0.1,0.1-0.1,0.1-0.2,0.1L53,40.1h-0.1
				c0,0,0,0,0,0.1c0,0,0,0.1,0,0.1l0,0c0,0,0,0,0,0.1s0.1,0.1,0.1,0.1s0.1,0,0.1,0s0.1,0,0.2,0c0.1,0,0.3,0,0.4,0.1
				c0.1,0,0.3,0,0.4,0s0.3-0.1,0.4-0.1c0.3-0.1,0.6-0.3,0.8-0.5c0.1-0.1,0.1-0.2,0.3-0.3l0.1-0.1l0.1-0.1c0.1,0.1,0.1,0.2,0.3,0.3
				c0.1,0.1,0.4,0.3,0.5,0.4c0.2,0.1,0.4,0.2,0.6,0.2c0.1,0,0.2,0.1,0.3,0.1c0.4,0.1,0.7,0.1,1.1,0.1c0.1,0,0.4,0,0.5-0.1
				c0.1,0,0.1,0,0.2-0.1c-0.1,0.1-0.4,0.3-0.5,0.4c-0.6,0.4-1.1,0.9-1.7,1.3c-1.1,0.9-2.3,1.7-3.5,2.6l0.1-0.1
				c-0.1,0.1-0.2,0.1-0.4,0.2c-0.3,0.2-0.6,0.4-0.9,0.6c-0.2,0.1-0.4,0.3-0.7,0.4c-0.1,0.1-0.3,0.1-0.4,0.1c-0.1,0-0.2,0-0.3,0
				s-0.1-0.1-0.2-0.1c-0.1-0.1-0.2-0.1-0.4-0.2c-0.1-0.1-0.2-0.2-0.3-0.3s-0.1-0.2-0.1-0.4c-0.1-0.1-0.1-0.3-0.1-0.4
				c0-0.1,0-0.4,0-0.5s0-0.3,0.1-0.4c0-0.1,0.1-0.1,0.1-0.3c0.1-0.1,0.1-0.2,0.2-0.3c0.1-0.1,0.1-0.1,0.2-0.2
				c0.1-0.1,0.1-0.1,0.2-0.1c0.1-0.1,0.1-0.1,0.3-0.1c0.1-0.1,0.1-0.1,0.3-0.1c0.1,0,0.1,0,0.1-0.1c0.1,0,0.1,0,0.2,0s0.1,0,0.1,0
				c-0.1,0.1-0.1,0.1-0.1,0.1c-0.1,0.1-0.1,0.1-0.1,0.2c-0.1,0.1-0.1,0.4-0.2,0.5c-0.1,0.1-0.1,0.4-0.1,0.6c0,0.1,0,0.4,0.1,0.5
				c0,0.1,0.1,0.1,0.1,0.2v0.1l0,0c0,0.1,0,0.1,0.1,0.1c0.1,0.1,0.2,0.1,0.3,0.1c0.1-0.1,0.3-0.1,0.4-0.2c0.1-0.1,0.1-0.1,0.2-0.1
				c0.1-0.1,0.1-0.1,0.1-0.1c0.1-0.1,0.1-0.1,0.1-0.2l0.1-0.1c0-0.1,0.1-0.1,0.1-0.1c0-0.1,0-0.1,0-0.2c0-0.2,0-0.4-0.1-0.6
				c-0.1-0.3-0.4-0.5-0.6-0.7c-0.1-0.1-0.4-0.1-0.6-0.2c-0.1,0-0.2,0-0.3,0s-0.1,0-0.2,0.1c-0.1,0.1-0.4,0.1-0.5,0.2
				c-0.1,0.1-0.3,0.1-0.4,0.3c-0.1,0.1-0.3,0.2-0.4,0.4c-0.1,0.1-0.1,0.2-0.2,0.4c0,0.1-0.1,0.1-0.1,0.2c0-0.1,0-0.2,0-0.3l0,0
				c0-0.1,0-0.3,0-0.4s0-0.2,0.1-0.4c0,0,0,0,0-0.1c0,0,0,0,0,0.1v-0.1l0,0c0-0.1,0.1-0.3,0.1-0.5c0.1-0.1,0.1-0.3,0.1-0.4
				c0-0.1,0.1-0.1,0.1-0.1v-0.1c0,0,0-0.1-0.1-0.1h-0.1h-0.1c-0.1,0.1-0.1,0.1-0.1,0.2c0,0.1-0.1,0.1-0.1,0.1
				c-0.1,0.1-0.1,0.3-0.1,0.4c-0.1,0.1-0.1,0.3-0.1,0.4l0,0v0.1v0.1c0,0.1,0,0.1,0,0.2c0,0.1,0,0.3,0,0.4c0,0.1,0,0.1,0,0.2
				c-0.1-0.1-0.1-0.1-0.1-0.1c-0.1-0.1-0.2-0.1-0.3-0.2c-0.1,0-0.1-0.1-0.1-0.1c-0.3-0.1-0.6-0.2-0.9-0.2c-0.1,0-0.1,0-0.1,0
				c-0.1,0-0.1,0-0.2,0c-0.1,0-0.1,0-0.2,0.1l-0.1,0.1v0.1c0,0.1,0,0.1,0,0.1l0.1,0.1l0,0c0.1,0.1,0.1,0.2,0.1,0.3
				c0.1,0.1,0.1,0.1,0.1,0.2c0.1,0.1,0.1,0.1,0.3,0.3c0.1,0.1,0.1,0.1,0.3,0.2c0.1,0.1,0.1,0.1,0.3,0.1c0.1,0.1,0.1,0.1,0.2,0.1
				c0.1,0.1,0.2,0.1,0.4,0.1c0.2,0,0.4,0,0.6,0.1c0,0.1,0,0.1,0,0.1c0,0.1,0.1,0.2,0.1,0.3c0,0.1,0.1,0.2,0.1,0.3
				c0.1,0.1,0.1,0.2,0.1,0.3c0.1,0.1,0.1,0.2,0.3,0.3c0.2,0.1,0.4,0.3,0.6,0.4c0.1,0,0.1,0,0.1,0.1c-0.1,0.1-0.3,0.1-0.4,0.2
				c-0.4,0.1-0.7,0.4-1.1,0.5c0,0,0,0-0.1,0l0,0c-0.2,0-0.4,0-0.6,0.1c-0.1,0-0.3,0.1-0.4,0.1c-0.1,0-0.1,0.1-0.2,0.1
				s-0.1,0.1-0.2,0.1c-0.1,0.1-0.2,0.1-0.4,0.2c-0.1,0.1-0.3,0.2-0.4,0.3c-0.2,0.1-0.4,0.4-0.6,0.6c-0.1,0.1-0.1,0.1-0.1,0.1
				l-0.1,0.1l-0.1,0.1l0,0c0,0.1,0,0.1,0,0.1l0,0c0,0.1,0.1,0.1,0.1,0.1c0.1,0.1,0.4,0.1,0.6,0.1c0.1,0,0.1,0,0.2,0
				c0.4-0.1,0.7-0.2,1.1-0.4c0.1,0,0.1-0.1,0.2-0.1c0.1-0.1,0.1-0.1,0.3-0.1c0.1-0.1,0.3-0.2,0.4-0.4c0.1-0.1,0.2-0.3,0.4-0.4
				c0.1-0.1,0.1-0.1,0.1-0.1v0.1c0,0.1,0,0.1,0,0.2c0,0.2,0,0.5-0.1,0.7c0,0.1,0,0.1-0.1,0.1v0.1v0.1v0.1l0.1,0.1
				c0.1,0,0.1,0,0.1-0.1c0.1-0.1,0.1-0.3,0.1-0.5c0-0.1,0.1-0.3,0.1-0.5c0-0.1,0-0.4,0-0.5c0-0.1,0-0.1-0.1-0.2
				c0.4-0.1,0.6-0.3,1-0.4c0.1-0.1,0.4-0.1,0.5-0.3c0.1-0.1,0.4-0.1,0.5-0.3c0.3-0.1,0.6-0.4,0.9-0.6c0.3-0.2,0.6-0.4,0.9-0.6
				c0.3-0.2,0.6-0.4,0.8-0.6l0,0c-0.1,0.1-0.1,0.3-0.2,0.5c-0.1,0.1-0.1,0.3-0.2,0.5c-0.1,0.1-0.1,0.4-0.1,0.5s0,0.2,0,0.4
				c0,0.1,0,0.1,0,0.1c-0.1,0.1-0.3,0.2-0.4,0.3C53.2,47,53,47,53,47.2c-0.1,0.1-0.1,0.1-0.2,0.2c-0.1,0.1-0.1,0.1-0.1,0.2l-0.1,0.1
				c0,0.1-0.1,0.1-0.1,0.1s-0.1,0.1-0.1,0.2c-0.1,0.1-0.1,0.4-0.2,0.5c0,0.1-0.1,0.2-0.1,0.3c0,0.1-0.1,0.2-0.1,0.4c0,0,0,0,0,0.1
				c0.1,0.1,0.2,0.1,0.3,0.1s0.1-0.1,0.3-0.1c0.1-0.1,0.1-0.1,0.2-0.1s0.1-0.1,0.2-0.1c0.1-0.1,0.1-0.1,0.2-0.1
				c0.1-0.1,0.3-0.3,0.4-0.4c0.1-0.1,0.2-0.3,0.2-0.5c0.1-0.1,0.1-0.2,0.1-0.3c0,0.1,0,0.2,0.1,0.4c0,0.2,0,0.4,0,0.6
				c0,0.1-0.1,0.4-0.1,0.5c0,0.1,0,0.1-0.1,0.2c0,0.1-0.1,0.1-0.1,0.2c0,0.1,0,0.1,0,0.1l0,0c0,0.1,0.1,0.1,0.1,0.1
				c0.1,0,0.2,0,0.2-0.1c0.1-0.2,0.1-0.4,0.1-0.6c0-0.2,0.1-0.4,0.1-0.6c0-0.1,0-0.2,0-0.4s0-0.2-0.1-0.4c0,0,0,0,0-0.1l0.1,0.1
				c0.1,0.1,0.1,0.1,0.2,0.1c0.1,0,0.1,0.1,0.1,0.1s0.1,0.1,0.1,0.1c0.1,0,0.1,0.1,0.3,0.1c0.1,0,0.1,0,0.1,0s0.2,0,0.3-0.1
				c0.1,0,0.1-0.1,0.3-0.1c0.1,0,0.1,0,0.2-0.1c0.1,0,0.1,0,0.2-0.1c0.1,0,0.1-0.1,0.1-0.1c0.1-0.1,0.1-0.1,0.2-0.1
				c0.1-0.1,0.1-0.1,0.2-0.3c0.1-0.1,0.1-0.2,0.1-0.4c0-0.1,0-0.2,0-0.3s0-0.1-0.1-0.2c0-0.1-0.1-0.1-0.1-0.2
				c-0.1-0.1-0.1-0.2-0.2-0.3s-0.1-0.1-0.2-0.1c-0.1,0-0.1-0.1-0.1-0.1c-0.1,0-0.1-0.1-0.3-0.1c-0.1-0.1-0.4-0.1-0.6-0.1
				c-0.1,0-0.2,0-0.3,0s-0.1,0.1-0.2,0.1c-0.1,0.1-0.1,0.1-0.1,0.1s0,0.2,0.1,0.3c0.1,0.1,0.2,0.2,0.4,0.4c0.1,0.1,0.1,0.1,0.2,0.1
				c0.1,0.1,0.1,0.1,0.2,0.1c0.1,0.1,0.4,0.1,0.5,0.1s0.3,0,0.4-0.1l0,0c0,0.1,0,0.1,0,0.1c0,0.1,0,0.1,0,0.1v0.1
				c-0.1,0.1-0.1,0.1-0.1,0.2c-0.1,0.1-0.2,0.1-0.3,0.3c-0.1,0-0.1,0.1-0.1,0.1c-0.1,0-0.2,0.1-0.4,0.1s-0.3,0.1-0.5,0.1
				c-0.1,0-0.1,0-0.3,0c-0.1,0-0.1-0.1-0.3-0.1c-0.1-0.1-0.3-0.1-0.4-0.3L54,47.1C53.9,47,53.9,47,53.9,47s-0.1-0.1-0.1-0.1
				s0-0.1-0.1-0.1c-0.1-0.1-0.1-0.3-0.1-0.4s0-0.2,0-0.4c0.1-0.1,0.1-0.4,0.1-0.5S54,45,54,44.9s0.1-0.3,0.2-0.4
				c0.1-0.1,0.1-0.1,0.1-0.2c0.1-0.1,0.1-0.1,0.1-0.2c0.1-0.1,0.1-0.1,0.1-0.1c0.6-0.5,1.3-0.9,1.9-1.4c0.6-0.5,1.2-0.9,1.8-1.4
				c0.3-0.2,0.5-0.4,0.8-0.6c0.1-0.1,0.3-0.3,0.5-0.4c0.1-0.1,0.3-0.2,0.4-0.3c0.1-0.1,0.3-0.2,0.4-0.3c0.1,0,0.1-0.1,0.1-0.1
				c0.1-0.1,0.2-0.1,0.3-0.1c0.2-0.1,0.5-0.3,0.8-0.4c0,0.1-0.1,0.1-0.1,0.1c-0.2,0.3-0.4,0.6-0.5,0.9c-0.1,0.4-0.2,0.6-0.4,1
				c-0.1,0.4-0.1,0.7-0.1,1.1c0,0.1,0,0.4,0,0.5c-0.2,0-0.4,0.1-0.6,0.1c-0.2,0.1-0.5,0.1-0.7,0.3c-0.1,0.1-0.2,0.1-0.3,0.1
				c-0.1,0.1-0.2,0.1-0.3,0.2c-0.1,0.1-0.2,0.2-0.4,0.3c-0.1,0.1-0.1,0.1-0.2,0.2c-0.1,0.1-0.1,0.1-0.1,0.1
				c-0.1,0.1-0.2,0.3-0.3,0.4c0,0.1-0.1,0.1-0.1,0.1s0,0.1,0,0.1v0.1l0,0c0,0.1,0.1,0.1,0.1,0.1c0.1,0,0.1,0,0.2,0
				c0.1,0,0.1-0.1,0.3-0.1c0.1-0.1,0.4-0.1,0.5-0.2s0.4-0.1,0.5-0.2c0.1,0,0.1-0.1,0.2-0.1c0.1-0.1,0.1-0.1,0.3-0.1
				c0.1-0.1,0.3-0.2,0.4-0.4s0.2-0.3,0.4-0.4c0.1-0.1,0.1-0.1,0.1-0.1v0.1c0,0.1,0,0.1,0,0.1s0,0.1,0,0.1c-0.1,0.1-0.1,0.3-0.1,0.5
				c0,0.1-0.1,0.2-0.1,0.3c0,0.1-0.1,0.1-0.1,0.2c-0.1,0.1-0.1,0.3-0.3,0.4c0,0.1,0,0.1,0,0.1c0,0,0,0.1,0.1,0.1
				c0.1,0.1,0.1,0,0.2-0.1c0.1-0.2,0.3-0.4,0.4-0.6c0.1-0.2,0.1-0.4,0.2-0.6c0-0.1,0.1-0.1,0.1-0.3c0.1,0.1,0.1,0.2,0.2,0.4
				c0.1,0.1,0.1,0.1,0.2,0.2l0,0l0,0l0,0c0,0,0,0.1,0.1,0.1l0,0c0.1,0.1,0.1,0.1,0.2,0.2c0.1,0.1,0.2,0.1,0.3,0.2
				c0.2,0.1,0.4,0.2,0.6,0.4c0.2,0.1,0.4,0.1,0.6,0.2c0.1,0,0.3,0.1,0.4,0.1s0.2,0.1,0.3,0.1S64,45.1,64,45s-0.1-0.1-0.1-0.1
				s-0.2,0-0.3-0.1c-0.1,0-0.1,0-0.2,0c-0.4-0.1-0.6-0.2-0.9-0.4l0,0l0,0l0,0l0,0c0,0-0.1,0-0.1-0.1c0,0,0,0,0.1,0
				c0.2,0.1,0.4,0.1,0.6,0l0,0l0,0c0.1,0,0.4,0,0.5-0.1c0.1-0.1,0.4-0.1,0.5-0.2c0.3-0.2,0.6-0.4,0.7-0.7c0.1-0.1,0.2-0.3,0.3-0.4
				s0.1-0.2,0.1-0.4c0-0.1,0-0.2,0-0.4s0-0.4-0.1-0.5s-0.1-0.3-0.1-0.4s-0.1-0.2-0.3-0.3c-0.1-0.1-0.1-0.1-0.3-0.1
				c0.4,0.8,0.2,0.8,0.1,0.8h-0.1c-0.1,0-0.1-0.1-0.1-0.1s-0.1,0-0.1-0.1c-0.1,0-0.1,0-0.3,0c-0.1,0.1-0.1,0.1-0.1,0.2
				c0,0.1,0,0.1,0,0.2s0,0.1,0,0.2c0,0.1,0.1,0.4,0.1,0.5s0.1,0.3,0.2,0.4c0.2,0.3,0.5,0.5,0.9,0.6c0.1,0,0.1,0.1,0.1,0.1h0.1
				c-0.1,0.1-0.1,0.2-0.2,0.4c-0.1,0.1-0.4,0.3-0.5,0.4c-0.1,0.1-0.2,0.1-0.3,0.1s-0.2,0.1-0.3,0.1c-0.1,0-0.2,0-0.4,0
				c-0.1,0-0.1,0-0.2,0c-0.1,0-0.1,0-0.2,0c-0.2-0.1-0.4-0.1-0.6-0.2c-0.1-0.1-0.2-0.1-0.3-0.2c-0.1-0.1-0.1-0.1-0.1-0.1
				c-0.1-0.1-0.1-0.3-0.2-0.4c-0.1-0.1-0.1-0.3-0.2-0.4c-0.1-0.1-0.1-0.3-0.1-0.4s-0.1-0.3-0.1-0.4s0-0.4,0-0.5s0.1-0.3,0.1-0.4l0,0
				l0,0l0,0l0,0c0.1-0.3,0.1-0.6,0.2-0.9c0.1-0.3,0.2-0.5,0.3-0.8c0.2-0.4,0.4-0.8,0.8-1.1c0.1-0.1,0.1-0.1,0.2-0.2
				c0.1-0.1,0.1-0.1,0.1-0.1c0.3-0.1,0.6-0.3,0.9-0.4c0.6-0.4,1.3-0.6,2-0.9c0.4-0.1,0.7-0.3,1.1-0.5c0.3-0.1,0.6-0.2,0.9-0.4
				c0.2-0.1,0.4-0.1,0.6-0.1c0.2-0.1,0.4-0.1,0.6-0.1c0.4-0.1,0.9-0.2,1.3-0.3c0.4-0.1,0.7-0.1,1.1-0.2c0.2,0,0.4-0.1,0.6-0.1
				c-0.1,0.1-0.3,0.1-0.4,0.2c-0.1,0.1-0.3,0.2-0.4,0.4c-0.3,0.3-0.5,0.6-0.7,0.9c-0.1,0.1-0.1,0.3-0.2,0.4c0,0-0.1,0-0.1,0.1
				c-0.1,0.1-0.1,0.2-0.2,0.3S70,37.9,70,38s-0.1,0.1-0.2,0.1c-0.1,0.1-0.2,0.1-0.4,0.2c-0.1,0.1-0.2,0.1-0.4,0.2
				c-0.1,0.1-0.3,0.1-0.4,0.2s-0.2,0.1-0.3,0.1c-0.1,0-0.1,0-0.1,0.1L68.2,39v0.1l0,0c0,0.1,0.1,0.1,0.1,0.1s0.1,0,0.1-0.1
				c0.1,0,0.1-0.1,0.1-0.1c0.1-0.1,0.2-0.1,0.3-0.1c0.2-0.1,0.4-0.2,0.6-0.4c0.1-0.1,0.2-0.1,0.4-0.2c0.1-0.1,0.1-0.1,0.3-0.2
				l0.1-0.1c-0.1,0.1-0.1,0.2-0.1,0.4s0,0.3,0,0.4c0,0.3,0.1,0.6,0.1,0.9c0,0,0,0.1,0.1,0.1l0,0l0,0c-0.1,0-0.1,0.1-0.1,0.1
				s0,0,0,0.1c-0.1,0.1-0.1,0.1-0.1,0.1c-0.1,0.1-0.2,0.2-0.3,0.4c-0.1,0.1-0.1,0.1-0.1,0.2c-0.1,0.1-0.1,0.3-0.2,0.4
				c-0.1,0.1-0.1,0.3-0.1,0.5c0,0.2-0.1,0.4-0.1,0.6c0,0.2-0.1,0.4,0,0.6v0.1l0,0l0.1,0.1c0.1,0,0.1,0.1,0.1,0.1
				c0.1,0,0.2,0,0.3-0.1c0.1-0.1,0.3-0.2,0.4-0.4c0.1-0.1,0.2-0.3,0.3-0.4s0.1-0.4,0.3-0.5c0.1-0.1,0.1-0.3,0.1-0.4v-0.1
				c0.1,0.1,0.1,0.3,0.1,0.5c0.1,0.2,0.1,0.4,0.1,0.6c0,0.1,0,0.2,0,0.3s0,0.2,0,0.3c0,0,0,0,0,0.1s0.1,0.1,0.1,0.1s0.1-0.1,0.1-0.1
				c0-0.1,0-0.1,0.1-0.2c0-0.1,0-0.1,0-0.2c0-0.1,0-0.2,0-0.4c0-0.2-0.1-0.4-0.1-0.6c-0.1-0.1-0.1-0.2-0.1-0.4l0,0
				c0.1,0.1,0.3,0.2,0.4,0.3c0.1,0.1,0.3,0.1,0.5,0.1c0.1,0,0.4,0.1,0.5,0.1c0.1,0,0.4,0,0.5-0.1c0.1,0,0.2-0.1,0.3-0.1
				c0.1-0.1,0.3-0.1,0.4-0.2c0.2-0.1,0.4-0.3,0.6-0.5c0.1-0.1,0.2-0.3,0.4-0.5c0.1-0.1,0.1-0.1,0.1-0.2c0.1-0.1,0.1-0.1,0.1-0.2
				c0-0.1,0.1-0.1,0.1-0.2c0-0.1,0-0.1,0-0.2c0-0.2-0.1-0.4-0.2-0.6c-0.1-0.2-0.4-0.3-0.5-0.4c-0.1-0.1-0.2-0.1-0.3-0.1
				c-0.1,0-0.2-0.1-0.3-0.1c-0.3,0-0.5,0-0.7,0.1c-0.1,0-0.4,0.1-0.5,0.1c-0.1,0-0.1,0.1-0.2,0.1c-0.1,0-0.1,0-0.1,0.1
				C72,38.5,72,38.6,72,38.7c0,0.1,0.1,0.2,0.2,0.4c0.1,0.1,0.1,0.1,0.1,0.1c0.1,0.1,0.3,0.2,0.4,0.4c0.4,0.2,0.7,0.4,1.1,0.4
				c0.1,0,0.4,0,0.5-0.1h0.1c0,0.1,0,0.1-0.1,0.1c-0.1,0.2-0.3,0.5-0.4,0.6s-0.3,0.3-0.4,0.4c-0.1,0.1-0.2,0.1-0.3,0.1
				c-0.1,0-0.1,0.1-0.2,0.1c-0.1,0-0.1,0-0.2,0c-0.1,0-0.2,0-0.4,0c-0.1,0-0.2,0-0.4,0l0,0l0,0l0,0l0,0l0,0l0,0c0,0,0,0-0.1,0l0,0
				l0,0l0,0l0,0c-0.1,0-0.3-0.1-0.4-0.1l0,0h-0.4l0,0c-0.1-0.1-0.2-0.1-0.3-0.2c-0.1-0.1-0.1-0.1-0.2-0.2c-0.1-0.1-0.1-0.2-0.2-0.4
				c0,0,0,0,0-0.1l0,0l0,0c0-0.1-0.1-0.1-0.1-0.1s-0.1-0.1-0.1-0.2c-0.1-0.1-0.1-0.4-0.1-0.5l0,0l0,0l0,0l0,0l0,0
				c0-0.3,0-0.5,0.1-0.8c0.1-0.3,0.1-0.5,0.3-0.8c0.1-0.2,0.2-0.4,0.3-0.6c0.1-0.1,0.2-0.4,0.4-0.5c0.1-0.1,0.2-0.2,0.3-0.3
				c0.1-0.1,0.2-0.2,0.4-0.3C72,36,72.2,36,72.2,36c0.1-0.1,0.2-0.1,0.3-0.2s0.2-0.1,0.3-0.2c0.6-0.1,1.2-0.1,1.8-0.3
				c0.4-0.1,0.7-0.1,1.1-0.2c0.4-0.1,0.7-0.1,1-0.2c0.4-0.1,0.7-0.1,1.1-0.1c0.4-0.1,0.8-0.1,1.1-0.1c0.1,0,0.1-0.1,0.2-0.1
				C79.2,34.3,79.2,34.3,79.2,34.2z M59,44.2L59,44.2L59,44.2L59,44.2z M56.6,46.5L56.6,46.5L56.6,46.5L56.6,46.5z M49.6,42.6
				L49.6,42.6L49.6,42.6L49.6,42.6z M55.3,39.3L55.3,39.3C55.2,39.3,55.2,39.3,55.3,39.3L55.3,39.3z M64.8,34.6
				C64.8,34.6,64.7,34.6,64.8,34.6C64.7,34.6,64.7,34.6,64.8,34.6C64.7,34.6,64.8,34.6,64.8,34.6L64.8,34.6z M67,34
				C67,34.1,67,34.1,67,34L67,34L67,34z"/>
			<path class="st1" d="M71.7,41.1L71.7,41.1L71.7,41.1L71.7,41.1z"/>
			<path class="st1" d="M71.8,41.1C71.8,41.1,71.8,41.2,71.8,41.1C71.8,41.2,71.8,41.2,71.8,41.1L71.8,41.1z"/>
			<path class="st1" d="M48.6,49.9c0-0.1,0.1-0.1,0.1-0.1c0.1,0,0.1-0.1,0.1-0.1h0.1l0,0c0.1,0,0.1-0.1,0.1-0.1s0.1,0,0.1,0
				s0.1,0,0.1,0.1c0.1,0.1,0.1,0.1,0.2,0.1c0.1,0.1,0.1,0.1,0.1,0.2s0,0.1,0,0.2c0,0.1-0.1,0.1-0.1,0.2l-0.1,0.1
				c-0.1,0.1-0.1,0.1-0.2,0.1c-0.1,0-0.1,0-0.3,0c-0.1,0-0.1-0.1-0.2-0.1c-0.1-0.1-0.1-0.1-0.1-0.2l0,0c0-0.1-0.1-0.1,0-0.2
				C48.4,50,48.5,49.9,48.6,49.9z"/>
			<path class="st1" d="M51.3,41.1c0-0.1,0.1-0.1,0.1-0.1s0-0.1,0-0.1v-0.1c0,0,0,0,0-0.1s-0.1-0.1-0.1-0.1
				c-0.2-0.1-0.4-0.2-0.5-0.2c-0.1,0-0.1,0-0.2,0.1c-0.1,0-0.1,0.1-0.1,0.1c-0.1,0.1-0.1,0.1-0.2,0.1l-0.1,0.1v0.1v0.1
				c0,0.1,0,0.1,0,0.1s0,0.1,0,0.1v0.1c0,0,0,0.1,0.1,0.1l0.1,0.1c0.1,0.1,0.1,0.1,0.2,0.1c0.1,0,0.1,0.1,0.2,0.1c0.1,0,0.1,0,0.1,0
				c0.1,0,0.1,0,0.1,0c0.1,0,0.1-0.1,0.2-0.1c0.1,0,0.1-0.1,0.1-0.1C51.2,41.2,51.3,41.1,51.3,41.1z M50.7,40.8L50.7,40.8L50.7,40.8
				L50.7,40.8L50.7,40.8z"/>
			<path class="st1" d="M52.9,50.8L52.9,50.8c0-0.1,0.1-0.1,0.1-0.1c0-0.1,0.1-0.1,0.1-0.1c0.1-0.1,0.1-0.1,0.3-0.2l0.1-0.1
				c0,0,0.1,0,0.1-0.1c0.1,0,0.1,0,0.1,0c0.2,0,0.4,0.2,0.4,0.4c0.1,0.1,0.1,0.2,0,0.3c0,0.1-0.1,0.2-0.1,0.3s-0.1,0.1-0.1,0.2
				c0,0.1-0.1,0.1-0.1,0.1c0,0-0.1,0.1-0.1,0.1s-0.1,0.1-0.1,0.1c-0.1,0-0.3-0.1-0.4-0.1c-0.1-0.1-0.1-0.1-0.1-0.2
				c0-0.1-0.1-0.1-0.1-0.2C52.8,50.9,52.8,50.9,52.9,50.8C52.8,50.9,52.9,50.9,52.9,50.8z"/>
			<path class="st1" d="M63,45.2L63,45.2L63,45.2L63,45.2z"/>
			<path class="st1" d="M65,45.5c0.1-0.1,0.1-0.1,0.2-0.2c0.1,0,0.1-0.1,0.1-0.1s0.1-0.1,0.1-0.1s0.1,0,0.2,0s0.1,0,0.1,0.1
				c0.1,0,0.1,0.1,0.1,0.1c0.1,0.1,0.1,0.1,0.1,0.2c0.1,0.1,0.1,0.1,0.1,0.3c0,0.1,0,0.2-0.1,0.3c-0.1,0.1-0.2,0.3-0.4,0.4
				c-0.1,0-0.1,0.1-0.2,0.1s-0.2,0-0.3-0.1c-0.1,0-0.1-0.1-0.2-0.1c0,0,0,0-0.1-0.1l-0.1-0.1l0,0c0-0.1,0-0.1,0-0.1
				c0-0.1,0-0.1,0-0.2C64.9,45.6,64.9,45.5,65,45.5z"/>
			<path class="st1" d="M54.9,37.7L54.9,37.7L54.9,37.7L54.9,37.7z"/>
			<path class="st1" d="M55.3,38.5L55.3,38.5L55.3,38.5z"/>
			<path class="st1" d="M55.3,38.4L55.3,38.4L55.3,38.4L55.3,38.4z"/>
			<path class="st1" d="M54.2,36.7L54.2,36.7c-0.1,0.1-0.1,0.1-0.1,0.1c-0.1,0.1-0.1,0.1-0.1,0.1c-0.1,0-0.1,0.1-0.2,0.1
				c-0.1,0-0.1,0-0.2,0c-0.1,0-0.1-0.1-0.2-0.1s-0.1-0.1-0.1-0.1C53,36.5,53,36.4,53,36.3s0.1-0.2,0.1-0.3s0.1-0.1,0.2-0.1
				c0.1-0.1,0.1-0.1,0.2-0.1c0.1,0,0.1,0,0.1,0c0.1,0,0.1,0,0.2,0.1c0.1,0,0.1,0.1,0.2,0.1c0.1,0.1,0.1,0.1,0.1,0.2
				c0,0.1,0,0.1,0,0.2C54.3,36.5,54.2,36.6,54.2,36.7z"/>
			<path class="st1" d="M63.4,31.4c-0.1,0.1-0.3,0.2-0.5,0.3c-0.2,0-0.4-0.1-0.6-0.2c-0.1-0.1-0.1-0.1-0.1-0.2
				c-0.1-0.1-0.1-0.3,0-0.4c0-0.1,0.1-0.1,0.1-0.2s0.1-0.1,0.2-0.2c0.2-0.1,0.4-0.1,0.6-0.1c0.1,0,0.1,0,0.2,0.1s0.1,0.1,0.1,0.2
				c0.1,0.1,0.1,0.1,0.1,0.3c0,0.1,0,0.1-0.1,0.2C63.5,31.2,63.4,31.3,63.4,31.4z"/>
			<path class="st1" d="M70,43.7L70,43.7c0.1-0.1,0.1-0.1,0.2-0.2l0,0l0.1-0.1c0.1,0,0.1-0.1,0.1-0.1h0.1c0,0,0.1-0.1,0.1-0.1
				s0.1,0,0.1,0c0.1,0,0.1,0,0.1,0.1c0.1,0,0.1,0.1,0.2,0.1s0.1,0.1,0.1,0.2s0,0.1,0,0.1s0,0.1,0,0.1c-0.1,0.1-0.1,0.3-0.3,0.4
				c-0.1,0.1-0.1,0.1-0.2,0.1c-0.1,0-0.2,0.1-0.3,0.1s-0.1,0-0.2,0s-0.1-0.1-0.2-0.1S70,44.4,70,44.3c0,0,0-0.1-0.1-0.1
				c0-0.1,0-0.1,0-0.1v-0.1V44C69.9,43.8,70,43.8,70,43.7z"/>
			<path class="st1" d="M66.6,39.1L66.6,39.1c0,0.1,0,0.1,0,0.2v0.1c0,0,0,0,0,0.1c0.1,0.1,0.1,0.1,0.1,0.2c0.1,0,0.1,0.1,0.1,0.1
				s0.1,0.1,0.1,0.1s0.1,0,0.2,0c0.1,0,0.1-0.1,0.2-0.1c0.1-0.1,0.1-0.1,0.2-0.2c0.1-0.1,0.1-0.1,0.1-0.3c0-0.1,0-0.1,0-0.1
				s0-0.1-0.1-0.1l-0.1-0.1l0,0c0,0,0,0,0-0.1c-0.1-0.1-0.1-0.1-0.1-0.1c-0.1-0.1-0.1-0.1-0.2-0.1c-0.1,0-0.1,0-0.1,0
				c-0.1,0-0.1,0-0.1,0.1c-0.1,0-0.1,0.1-0.1,0.1s-0.1,0.1-0.1,0.1C66.6,39,66.6,39,66.6,39.1z M67.2,39.2L67.2,39.2L67.2,39.2
				L67.2,39.2z M67.2,39.2L67.2,39.2L67.2,39.2L67.2,39.2L67.2,39.2z"/>
			<path class="st1" d="M59.2,46.1c0.1-0.1,0.1-0.1,0.1-0.2l0.1-0.1c0,0,0.1-0.1,0.1-0.1c0.1,0,0.1,0,0.1-0.1h0.1l0,0h0.1h0.1
				c0.1,0,0.1,0,0.1,0c0.1,0,0.1,0,0.1,0.1l0.1,0.1c0,0.1,0.1,0.1,0.1,0.1c0,0.1,0,0.1,0,0.1c0,0.1,0,0.2,0,0.3
				c-0.1,0.1-0.1,0.3-0.3,0.4c-0.1,0.1-0.1,0.1-0.1,0.1c-0.1,0.1-0.1,0.1-0.2,0.1c-0.1,0.1-0.4,0-0.5-0.1c-0.1-0.1-0.1-0.1-0.1-0.2
				l0,0c-0.1-0.1-0.1-0.2-0.1-0.3s0-0.1,0-0.1C59.2,46.2,59.2,46.2,59.2,46.1z"/>
		</g>
	</g>
</g>
<path class="st0" d="M76.2,117.2"/>
<path class="st0" d="M128.4,128.3"/>
</svg>
